<svg width="135" height="58" viewBox="0 0 135 58" fill="none" xmlns="http://www.w3.org/2000/svg">
<path d="M2.64025 23V21.784L4.49625 21.496C4.94425 21.432 5.21092 21.272 5.29625 21.016C5.40292 20.76 5.46692 20.376 5.48825 19.864L6.48025 3.352C6.52292 2.79733 6.46958 2.424 6.32025 2.232C6.19225 2.04 5.91492 1.912 5.48825 1.848L3.60025 1.56V0.344H10.8323L16.5923 16.824L16.7203 16.6L22.6083 0.344H29.7443V1.56L27.7283 1.848C27.3656 1.89067 27.1096 2.008 26.9603 2.2C26.8323 2.392 26.7789 2.81867 26.8003 3.48L27.7603 19.992C27.7816 20.5467 27.8563 20.9307 27.9843 21.144C28.1336 21.336 28.4109 21.4533 28.8163 21.496L30.7363 21.784V23H21.6483V21.784L23.6323 21.496C24.0376 21.432 24.3043 21.2933 24.4323 21.08C24.5816 20.8667 24.6349 20.4613 24.5923 19.864L23.6003 2.68V2.52L17.3923 19.384H14.5123L8.36825 2.488L8.33625 2.68L7.34425 19.992C7.32292 20.44 7.35492 20.792 7.44025 21.048C7.54692 21.2827 7.85625 21.432 8.36825 21.496L10.1923 21.784V23H2.64025ZM38.1448 23.448C36.7794 23.448 35.6914 23.064 34.8808 22.296C34.0701 21.5067 33.6648 20.4507 33.6648 19.128C33.6648 17.976 33.9528 17.048 34.5288 16.344C35.1048 15.6187 36.0541 15.0747 37.3768 14.712C38.7208 14.328 40.5234 14.0827 42.7848 13.976V11.32C42.7848 10.4453 42.6674 9.74133 42.4328 9.208C42.1981 8.65333 41.8354 8.248 41.3448 7.992C40.8541 7.71467 40.2034 7.576 39.3928 7.576C38.7741 7.576 38.1661 7.672 37.5688 7.864C36.9714 8.056 36.5341 8.30133 36.2568 8.6C36.4914 8.96267 36.6834 9.272 36.8328 9.528C36.9821 9.784 37.0888 10.008 37.1528 10.2C37.2381 10.3707 37.2808 10.52 37.2808 10.648C37.2808 11.032 37.1101 11.3627 36.7688 11.64C36.4488 11.9173 36.0328 12.056 35.5208 12.056C34.9448 12.056 34.4968 11.9173 34.1768 11.64C33.8781 11.3413 33.7288 10.9253 33.7288 10.392C33.7288 9.66667 34.0061 8.99467 34.5608 8.376C35.1368 7.736 35.8834 7.224 36.8008 6.84C37.7181 6.456 38.7208 6.264 39.8088 6.264C41.1528 6.264 42.2621 6.47733 43.1368 6.904C44.0114 7.30933 44.6621 7.93867 45.0888 8.792C45.5368 9.64533 45.7608 10.7227 45.7608 12.024V19.992C45.7608 20.504 45.8888 20.8773 46.1448 21.112C46.4008 21.3467 46.7528 21.464 47.2008 21.464C47.4354 21.464 47.6701 21.4427 47.9048 21.4C48.1608 21.3573 48.4381 21.2827 48.7368 21.176L49.0248 22.104C48.5981 22.5307 48.1074 22.8613 47.5528 23.096C47.0194 23.3307 46.5181 23.448 46.0488 23.448C45.1101 23.448 44.3954 23.2027 43.9048 22.712C43.4141 22.2213 43.1154 21.4853 43.0088 20.504C42.6248 21.1867 42.1874 21.752 41.6968 22.2C41.2274 22.6267 40.6941 22.936 40.0968 23.128C39.5208 23.3413 38.8701 23.448 38.1448 23.448ZM39.3928 21.496C40.0328 21.496 40.6088 21.3467 41.1208 21.048C41.6328 20.7493 42.0381 20.344 42.3368 19.832C42.6354 19.2987 42.7848 18.7013 42.7848 18.04V15.32C41.3981 15.32 40.2568 15.4373 39.3608 15.672C38.4648 15.9067 37.8034 16.28 37.3768 16.792C36.9714 17.304 36.7688 17.9653 36.7688 18.776C36.7688 19.6293 37.0034 20.3013 37.4728 20.792C37.9421 21.2613 38.5821 21.496 39.3928 21.496ZM50.5078 23V21.816L52.0438 21.56C52.3851 21.496 52.6091 21.368 52.7158 21.176C52.8224 20.9627 52.8758 20.5787 52.8758 20.024V10.232C52.8758 9.464 52.8118 8.952 52.6838 8.696C52.5558 8.44 52.2571 8.29067 51.7878 8.248L50.1878 8.056L50.3798 6.84L55.0838 6.52L55.4038 6.712L55.5638 9.656H55.6278C56.1824 8.58933 56.9611 7.75733 57.9638 7.16C58.9878 6.56267 60.0651 6.264 61.1958 6.264C62.3051 6.264 63.2438 6.47733 64.0118 6.904C64.7798 7.30933 65.3558 7.91733 65.7397 8.728C66.1451 9.53867 66.3478 10.5413 66.3478 11.736V20.28C66.3478 20.7493 66.4118 21.0693 66.5398 21.24C66.6678 21.4107 66.9344 21.528 67.3398 21.592L68.8438 21.816V23H61.0038V21.848L62.4118 21.624C62.8171 21.5387 63.0731 21.4107 63.1798 21.24C63.3078 21.0693 63.3718 20.7493 63.3718 20.28V12.376C63.3718 11.3733 63.2651 10.5733 63.0518 9.976C62.8598 9.37867 62.5291 8.952 62.0598 8.696C61.6118 8.41867 60.9931 8.28 60.2038 8.28C59.3291 8.28 58.5611 8.46133 57.8998 8.824C57.2598 9.18667 56.7584 9.70933 56.3958 10.392C56.0331 11.0533 55.8518 11.832 55.8518 12.728V20.152C55.8518 20.6213 55.9051 20.952 56.0118 21.144C56.1184 21.336 56.3318 21.464 56.6518 21.528L58.3478 21.848V23H50.5078ZM70.9973 23V21.848L80.6613 8.088H76.5333C75.7013 8.088 75.0506 8.184 74.5813 8.376C74.1333 8.568 73.7599 8.94133 73.4613 9.496C73.1626 10.0507 72.8639 10.8613 72.5653 11.928L71.0933 12.056L71.4773 6.712H83.9893V7.928L74.3893 21.592H78.4533C79.1359 21.592 79.7013 21.5387 80.1493 21.432C80.5973 21.3253 80.9706 21.1227 81.2693 20.824C81.5679 20.5253 81.8453 20.088 82.1013 19.512C82.3573 18.936 82.6346 18.168 82.9333 17.208H84.3093L83.8613 23H70.9973ZM91.426 23.448C90.0607 23.448 88.9727 23.064 88.162 22.296C87.3513 21.5067 86.946 20.4507 86.946 19.128C86.946 17.976 87.234 17.048 87.81 16.344C88.386 15.6187 89.3353 15.0747 90.658 14.712C92.002 14.328 93.8047 14.0827 96.066 13.976V11.32C96.066 10.4453 95.9487 9.74133 95.714 9.208C95.4793 8.65333 95.1167 8.248 94.626 7.992C94.1353 7.71467 93.4847 7.576 92.674 7.576C92.0553 7.576 91.4473 7.672 90.85 7.864C90.2527 8.056 89.8153 8.30133 89.538 8.6C89.7727 8.96267 89.9647 9.272 90.114 9.528C90.2633 9.784 90.37 10.008 90.434 10.2C90.5193 10.3707 90.562 10.52 90.562 10.648C90.562 11.032 90.3913 11.3627 90.05 11.64C89.73 11.9173 89.314 12.056 88.802 12.056C88.226 12.056 87.778 11.9173 87.458 11.64C87.1593 11.3413 87.01 10.9253 87.01 10.392C87.01 9.66667 87.2873 8.99467 87.842 8.376C88.418 7.736 89.1647 7.224 90.082 6.84C90.9993 6.456 92.002 6.264 93.09 6.264C94.434 6.264 95.5433 6.47733 96.418 6.904C97.2927 7.30933 97.9433 7.93867 98.37 8.792C98.818 9.64533 99.042 10.7227 99.042 12.024V19.992C99.042 20.504 99.17 20.8773 99.426 21.112C99.682 21.3467 100.034 21.464 100.482 21.464C100.717 21.464 100.951 21.4427 101.186 21.4C101.442 21.3573 101.719 21.2827 102.018 21.176L102.306 22.104C101.879 22.5307 101.389 22.8613 100.834 23.096C100.301 23.3307 99.7993 23.448 99.33 23.448C98.3913 23.448 97.6767 23.2027 97.186 22.712C96.6953 22.2213 96.3967 21.4853 96.29 20.504C95.906 21.1867 95.4687 21.752 94.978 22.2C94.5087 22.6267 93.9753 22.936 93.378 23.128C92.802 23.3413 92.1513 23.448 91.426 23.448ZM92.674 21.496C93.314 21.496 93.89 21.3467 94.402 21.048C94.914 20.7493 95.3193 20.344 95.618 19.832C95.9167 19.2987 96.066 18.7013 96.066 18.04V15.32C94.6793 15.32 93.538 15.4373 92.642 15.672C91.746 15.9067 91.0847 16.28 90.658 16.792C90.2527 17.304 90.05 17.9653 90.05 18.776C90.05 19.6293 90.2847 20.3013 90.754 20.792C91.2233 21.2613 91.8633 21.496 92.674 21.496ZM103.789 23V21.784L105.325 21.528C105.666 21.464 105.89 21.336 105.997 21.144C106.104 20.9307 106.157 20.5467 106.157 19.992V10.264C106.157 9.51733 106.093 9.016 105.965 8.76C105.837 8.48267 105.538 8.32267 105.069 8.28L103.469 8.056L103.661 6.84L108.269 6.52L108.589 6.712L108.845 9.688H108.941C109.517 8.57867 110.21 7.736 111.021 7.16C111.832 6.56267 112.706 6.264 113.645 6.264C114.648 6.264 115.448 6.54133 116.045 7.096C116.642 7.62933 116.941 8.344 116.941 9.24C116.941 9.752 116.856 10.1893 116.685 10.552C116.536 10.9147 116.301 11.192 115.981 11.384C115.661 11.576 115.266 11.672 114.797 11.672C114.2 11.672 113.73 11.544 113.389 11.288C113.069 11.032 112.909 10.6907 112.909 10.264C112.909 10.0933 112.941 9.912 113.005 9.72C113.069 9.528 113.154 9.31467 113.261 9.08C113.389 8.84533 113.538 8.57867 113.709 8.28C113.197 8.06667 112.674 8.04533 112.141 8.216C111.608 8.36533 111.106 8.664 110.637 9.112C110.189 9.56 109.826 10.1147 109.549 10.776C109.272 11.416 109.133 12.1093 109.133 12.856V20.056C109.133 20.568 109.176 20.92 109.261 21.112C109.368 21.2827 109.592 21.3893 109.933 21.432L112.685 21.816V23H103.789ZM123.364 23.448C121.998 23.448 120.91 23.064 120.1 22.296C119.289 21.5067 118.884 20.4507 118.884 19.128C118.884 17.976 119.172 17.048 119.748 16.344C120.324 15.6187 121.273 15.0747 122.596 14.712C123.94 14.328 125.742 14.0827 128.004 13.976V11.32C128.004 10.4453 127.886 9.74133 127.652 9.208C127.417 8.65333 127.054 8.248 126.564 7.992C126.073 7.71467 125.422 7.576 124.612 7.576C123.993 7.576 123.385 7.672 122.788 7.864C122.19 8.056 121.753 8.30133 121.476 8.6C121.71 8.96267 121.902 9.272 122.052 9.528C122.201 9.784 122.308 10.008 122.372 10.2C122.457 10.3707 122.5 10.52 122.5 10.648C122.5 11.032 122.329 11.3627 121.988 11.64C121.668 11.9173 121.252 12.056 120.74 12.056C120.164 12.056 119.716 11.9173 119.396 11.64C119.097 11.3413 118.948 10.9253 118.948 10.392C118.948 9.66667 119.225 8.99467 119.78 8.376C120.356 7.736 121.102 7.224 122.02 6.84C122.937 6.456 123.94 6.264 125.028 6.264C126.372 6.264 127.481 6.47733 128.356 6.904C129.23 7.30933 129.881 7.93867 130.308 8.792C130.756 9.64533 130.98 10.7227 130.98 12.024V19.992C130.98 20.504 131.108 20.8773 131.364 21.112C131.62 21.3467 131.972 21.464 132.42 21.464C132.654 21.464 132.889 21.4427 133.124 21.4C133.38 21.3573 133.657 21.2827 133.956 21.176L134.244 22.104C133.817 22.5307 133.326 22.8613 132.772 23.096C132.238 23.3307 131.737 23.448 131.268 23.448C130.329 23.448 129.614 23.2027 129.124 22.712C128.633 22.2213 128.334 21.4853 128.228 20.504C127.844 21.1867 127.406 21.752 126.916 22.2C126.446 22.6267 125.913 22.936 125.316 23.128C124.74 23.3413 124.089 23.448 123.364 23.448ZM124.612 21.496C125.252 21.496 125.828 21.3467 126.34 21.048C126.852 20.7493 127.257 20.344 127.556 19.832C127.854 19.2987 128.004 18.7013 128.004 18.04V15.32C126.617 15.32 125.476 15.4373 124.58 15.672C123.684 15.9067 123.022 16.28 122.596 16.792C122.19 17.304 121.988 17.9653 121.988 18.776C121.988 19.6293 122.222 20.3013 122.692 20.792C123.161 21.2613 123.801 21.496 124.612 21.496Z" fill="#F5F5F5"/>
<path d="M5.9375 42.6562H9.41406V43.8359H5.9375V42.6562ZM22.8125 35.576V36.856H17.8045V47H16.3645V35.576H22.8125ZM30.8941 42.696C30.8941 43.4107 30.7981 44.0453 30.6061 44.6C30.4248 45.144 30.1581 45.608 29.8061 45.992C29.4648 46.376 29.0435 46.6693 28.5421 46.872C28.0515 47.064 27.5021 47.16 26.8941 47.16C26.3288 47.16 25.8061 47.064 25.3261 46.872C24.8461 46.6693 24.4301 46.376 24.0781 45.992C23.7261 45.608 23.4488 45.144 23.2461 44.6C23.0541 44.0453 22.9581 43.4107 22.9581 42.696C22.9581 41.7467 23.1181 40.9467 23.4381 40.296C23.7581 39.6347 24.2168 39.1333 24.8141 38.792C25.4115 38.44 26.1208 38.264 26.9421 38.264C27.7208 38.264 28.4035 38.44 28.9901 38.792C29.5875 39.1333 30.0515 39.6347 30.3821 40.296C30.7235 40.9467 30.8941 41.7467 30.8941 42.696ZM24.4141 42.696C24.4141 43.368 24.4995 43.9547 24.6701 44.456C24.8515 44.9467 25.1288 45.3253 25.5021 45.592C25.8755 45.8587 26.3501 45.992 26.9261 45.992C27.5021 45.992 27.9768 45.8587 28.3501 45.592C28.7235 45.3253 28.9955 44.9467 29.1661 44.456C29.3475 43.9547 29.4381 43.368 29.4381 42.696C29.4381 42.0133 29.3475 41.432 29.1661 40.952C28.9848 40.472 28.7075 40.104 28.3341 39.848C27.9715 39.5813 27.4968 39.448 26.9101 39.448C26.0355 39.448 25.4008 39.736 25.0061 40.312C24.6115 40.888 24.4141 41.6827 24.4141 42.696ZM36.5656 47.16C35.8083 47.16 35.131 47.0053 34.5336 46.696C33.947 46.3867 33.483 45.9067 33.1416 45.256C32.811 44.6053 32.6456 43.7733 32.6456 42.76C32.6456 41.704 32.8216 40.8453 33.1736 40.184C33.5256 39.5227 34.0003 39.0373 34.5976 38.728C35.2056 38.4187 35.8936 38.264 36.6616 38.264C37.099 38.264 37.5203 38.312 37.9256 38.408C38.331 38.4933 38.6616 38.6 38.9176 38.728L38.4856 39.896C38.2296 39.8 37.931 39.7093 37.5896 39.624C37.2483 39.5387 36.9283 39.496 36.6296 39.496C36.0536 39.496 35.579 39.6187 35.2056 39.864C34.8323 40.1093 34.555 40.472 34.3736 40.952C34.1923 41.432 34.1016 42.0293 34.1016 42.744C34.1016 43.4267 34.1923 44.008 34.3736 44.488C34.555 44.968 34.827 45.3307 35.1896 45.576C35.5523 45.8213 36.0056 45.944 36.5496 45.944C37.019 45.944 37.4296 45.896 37.7816 45.8C38.1443 45.704 38.475 45.5867 38.7736 45.448V46.696C38.4856 46.8453 38.1656 46.9573 37.8136 47.032C37.4723 47.1173 37.0563 47.16 36.5656 47.16ZM46.7331 39.608H43.9331V47H42.5411V39.608H39.7731V38.424H46.7331V39.608ZM51.5783 38.264C52.3143 38.264 52.9436 38.424 53.4663 38.744C53.9996 39.064 54.4049 39.5173 54.6823 40.104C54.9703 40.68 55.1143 41.3573 55.1143 42.136V42.984H49.2423C49.2636 43.9547 49.5089 44.696 49.9783 45.208C50.4583 45.7093 51.1249 45.96 51.9783 45.96C52.5223 45.96 53.0023 45.912 53.4183 45.816C53.8449 45.7093 54.2823 45.56 54.7303 45.368V46.6C54.2929 46.792 53.8609 46.9307 53.4343 47.016C53.0076 47.112 52.5009 47.16 51.9143 47.16C51.1036 47.16 50.3836 46.9947 49.7543 46.664C49.1356 46.3333 48.6503 45.8427 48.2983 45.192C47.9569 44.5307 47.7863 43.7253 47.7863 42.776C47.7863 41.8373 47.9409 41.032 48.2503 40.36C48.5703 39.688 49.0129 39.1707 49.5783 38.808C50.1543 38.4453 50.8209 38.264 51.5783 38.264ZM51.5623 39.416C50.8903 39.416 50.3569 39.6347 49.9623 40.072C49.5783 40.4987 49.3489 41.096 49.2743 41.864H53.6423C53.6423 41.3733 53.5676 40.9467 53.4183 40.584C53.2689 40.2213 53.0396 39.9387 52.7303 39.736C52.4316 39.5227 52.0423 39.416 51.5623 39.416ZM64.1935 40.584C64.1935 41.1173 64.0335 41.5333 63.7135 41.832C63.3935 42.1307 62.9828 42.3333 62.4815 42.44V42.504C63.0148 42.5787 63.4788 42.7707 63.8735 43.08C64.2682 43.3787 64.4655 43.848 64.4655 44.488C64.4655 44.8507 64.3962 45.1867 64.2575 45.496C64.1295 45.8053 63.9268 46.072 63.6495 46.296C63.3722 46.52 63.0148 46.696 62.5775 46.824C62.1402 46.9413 61.6122 47 60.9935 47H57.2975V38.424H60.9775C61.5855 38.424 62.1295 38.4933 62.6095 38.632C63.1002 38.76 63.4842 38.984 63.7615 39.304C64.0495 39.6133 64.1935 40.04 64.1935 40.584ZM63.0095 44.488C63.0095 43.9973 62.8228 43.6453 62.4495 43.432C62.0762 43.2187 61.5268 43.112 60.8015 43.112H58.7055V45.864H60.8335C61.5375 45.864 62.0762 45.7627 62.4495 45.56C62.8228 45.3467 63.0095 44.9893 63.0095 44.488ZM62.7695 40.76C62.7695 40.3547 62.6202 40.0613 62.3215 39.88C62.0335 39.688 61.5588 39.592 60.8975 39.592H58.7055V41.944H60.6415C61.3348 41.944 61.8628 41.848 62.2255 41.656C62.5882 41.464 62.7695 41.1653 62.7695 40.76ZM73.9722 42.696C73.9722 43.4107 73.8763 44.0453 73.6843 44.6C73.5029 45.144 73.2363 45.608 72.8843 45.992C72.5429 46.376 72.1216 46.6693 71.6203 46.872C71.1296 47.064 70.5803 47.16 69.9723 47.16C69.4069 47.16 68.8843 47.064 68.4043 46.872C67.9243 46.6693 67.5083 46.376 67.1562 45.992C66.8043 45.608 66.5269 45.144 66.3243 44.6C66.1323 44.0453 66.0363 43.4107 66.0363 42.696C66.0363 41.7467 66.1963 40.9467 66.5163 40.296C66.8363 39.6347 67.2949 39.1333 67.8923 38.792C68.4896 38.44 69.1989 38.264 70.0203 38.264C70.7989 38.264 71.4816 38.44 72.0683 38.792C72.6656 39.1333 73.1296 39.6347 73.4603 40.296C73.8016 40.9467 73.9722 41.7467 73.9722 42.696ZM67.4923 42.696C67.4923 43.368 67.5776 43.9547 67.7483 44.456C67.9296 44.9467 68.2069 45.3253 68.5803 45.592C68.9536 45.8587 69.4283 45.992 70.0043 45.992C70.5803 45.992 71.0549 45.8587 71.4283 45.592C71.8016 45.3253 72.0736 44.9467 72.2443 44.456C72.4256 43.9547 72.5163 43.368 72.5163 42.696C72.5163 42.0133 72.4256 41.432 72.2443 40.952C72.0629 40.472 71.7856 40.104 71.4123 39.848C71.0496 39.5813 70.5749 39.448 69.9883 39.448C69.1136 39.448 68.4789 39.736 68.0843 40.312C67.6896 40.888 67.4923 41.6827 67.4923 42.696ZM83.1478 34.872C83.1051 35.4053 82.9718 35.8533 82.7478 36.216C82.5344 36.5787 82.2144 36.8507 81.7878 37.032C81.3611 37.2133 80.8064 37.304 80.1238 37.304C79.4304 37.304 78.8704 37.2133 78.4438 37.032C78.0278 36.8507 77.7238 36.584 77.5318 36.232C77.3398 35.8693 77.2224 35.416 77.1798 34.872H78.4918C78.5451 35.448 78.6944 35.8373 78.9398 36.04C79.1958 36.232 79.6011 36.328 80.1558 36.328C80.6464 36.328 81.0304 36.2267 81.3078 36.024C81.5958 35.8107 81.7664 35.4267 81.8198 34.872H83.1478ZM77.5318 43.656C77.5318 43.752 77.5264 43.8907 77.5158 44.072C77.5158 44.2427 77.5104 44.4293 77.4998 44.632C77.4891 44.824 77.4784 45.0107 77.4678 45.192C77.4571 45.3627 77.4464 45.5013 77.4358 45.608L82.0278 38.424H83.7558V47H82.4438V41.944C82.4438 41.7733 82.4438 41.5493 82.4438 41.272C82.4544 40.9947 82.4651 40.7227 82.4758 40.456C82.4864 40.1787 82.4971 39.9707 82.5078 39.832L77.9478 47H76.2038V38.424H77.5318V43.656ZM96.9936 38.424V45.816H98.2416V49.976H96.8816V47H90.9136V49.976H89.5696V45.816H90.2576C90.7483 45.1333 91.1536 44.392 91.4736 43.592C91.8043 42.7813 92.0496 41.9387 92.2096 41.064C92.3803 40.1787 92.471 39.2987 92.4816 38.424H96.9936ZM93.7296 39.528C93.687 40.2533 93.575 41.0053 93.3936 41.784C93.2123 42.552 92.9776 43.288 92.6896 43.992C92.4123 44.696 92.087 45.304 91.7136 45.816H95.6336V39.528H93.7296ZM107.378 42.696C107.378 43.4107 107.283 44.0453 107.091 44.6C106.909 45.144 106.643 45.608 106.291 45.992C105.949 46.376 105.528 46.6693 105.027 46.872C104.536 47.064 103.987 47.16 103.379 47.16C102.813 47.16 102.291 47.064 101.811 46.872C101.331 46.6693 100.915 46.376 100.562 45.992C100.211 45.608 99.9332 45.144 99.7305 44.6C99.5385 44.0453 99.4425 43.4107 99.4425 42.696C99.4425 41.7467 99.6025 40.9467 99.9225 40.296C100.243 39.6347 100.701 39.1333 101.299 38.792C101.896 38.44 102.605 38.264 103.427 38.264C104.205 38.264 104.888 38.44 105.475 38.792C106.072 39.1333 106.536 39.6347 106.867 40.296C107.208 40.9467 107.378 41.7467 107.378 42.696ZM100.899 42.696C100.899 43.368 100.984 43.9547 101.155 44.456C101.336 44.9467 101.613 45.3253 101.987 45.592C102.36 45.8587 102.835 45.992 103.411 45.992C103.987 45.992 104.461 45.8587 104.835 45.592C105.208 45.3253 105.48 44.9467 105.651 44.456C105.832 43.9547 105.923 43.368 105.923 42.696C105.923 42.0133 105.832 41.432 105.651 40.952C105.469 40.472 105.192 40.104 104.819 39.848C104.456 39.5813 103.981 39.448 103.395 39.448C102.52 39.448 101.885 39.736 101.491 40.312C101.096 40.888 100.899 41.6827 100.899 42.696ZM118.81 38.424V47H117.546V41.528C117.546 41.304 117.551 41.0693 117.562 40.824C117.583 40.5787 117.605 40.3387 117.626 40.104H117.578L114.778 47H113.594L110.874 40.104H110.826C110.847 40.3387 110.858 40.5787 110.858 40.824C110.869 41.0693 110.874 41.32 110.874 41.576V47H109.61V38.424H111.482L114.186 45.32L116.938 38.424H118.81ZM125.578 42.6562H129.055V43.8359H125.578V42.6562Z" fill="#F5F5F5"/>
</svg>
