<svg width="148" height="61" viewBox="0 0 148 61" fill="none" xmlns="http://www.w3.org/2000/svg">
<path d="M11.8849 54.112L12.0289 39.88C12.0289 39.096 12.4209 38.704 13.2049 38.704H13.9969C14.8769 38.704 15.5009 39.208 15.8689 40.216C16.3169 41.48 17.0129 43.528 17.9569 46.36C18.9169 49.192 19.6769 51.384 20.2369 52.936C20.7489 51.496 21.4849 49.376 22.4449 46.576C23.4209 43.776 24.1649 41.656 24.6769 40.216C25.0289 39.208 25.6449 38.704 26.5249 38.704H27.3889C27.7569 38.704 28.0529 38.816 28.2769 39.04C28.5009 39.248 28.6129 39.528 28.6129 39.88V41.2L28.7089 54.112C28.7089 54.704 28.3969 55 27.7729 55H27.5569C26.9329 55 26.6209 54.704 26.6209 54.112L26.6929 40.216C23.9569 47.688 22.2689 52.272 21.6289 53.968C21.3569 54.656 20.9009 55 20.2609 55H20.0929C19.4209 55 18.9649 54.656 18.7249 53.968C18.2929 52.784 17.5409 50.608 16.4689 47.44C15.4129 44.256 14.5569 41.848 13.9009 40.216L13.9729 54.112C13.9729 54.704 13.6609 55 13.0369 55H12.8209C12.1969 55 11.8849 54.704 11.8849 54.112ZM39.3006 38.728H39.5646C39.9646 38.728 40.2206 38.776 40.3326 38.872C40.4606 38.968 40.5406 39.032 40.5726 39.064C40.6206 39.08 40.6766 39.144 40.7406 39.256C40.8206 39.368 40.8686 39.44 40.8846 39.472C40.9166 39.504 40.9726 39.6 41.0526 39.76C41.1326 39.92 41.1886 40.024 41.2206 40.072C43.1886 43.64 45.0046 48.216 46.6686 53.8C46.7166 53.992 46.7406 54.176 46.7406 54.352C46.7406 54.784 46.4926 55 45.9966 55H45.4206C45.1486 55 44.9566 54.952 44.8446 54.856C44.7486 54.76 44.6766 54.688 44.6286 54.64C44.5806 54.592 44.5326 54.504 44.4846 54.376C44.4366 54.232 44.4046 54.128 44.3886 54.064C44.3406 53.968 44.1806 53.424 43.9086 52.432C43.6526 51.424 43.3646 50.456 43.0446 49.528H35.7966C35.3966 50.76 35.0846 51.808 34.8606 52.672C34.6366 53.536 34.5086 54 34.4766 54.064C34.4606 54.128 34.4286 54.232 34.3806 54.376C34.3326 54.504 34.2846 54.592 34.2366 54.64C34.1886 54.688 34.1246 54.744 34.0446 54.808C33.9166 54.936 33.7166 55 33.4446 55H32.8686C32.3566 55 32.1006 54.784 32.1006 54.352C32.1006 54.24 32.1326 54.056 32.1966 53.8C33.8606 48.216 35.6766 43.64 37.6446 40.072C37.6766 40.024 37.7326 39.92 37.8126 39.76C37.8926 39.6 37.9406 39.504 37.9566 39.472C37.9886 39.44 38.0366 39.368 38.1006 39.256C38.1806 39.144 38.2366 39.08 38.2686 39.064C38.3166 39.032 38.3806 38.984 38.4606 38.92C38.5406 38.856 38.6126 38.816 38.6766 38.8C38.9006 38.752 39.1086 38.728 39.3006 38.728ZM39.4206 41.008C38.3806 42.848 37.3726 45.112 36.3966 47.8H42.4686C41.8926 46.216 40.8766 43.952 39.4206 41.008ZM51.0012 38.704H51.4812C52.0892 38.704 52.6012 39.04 53.0172 39.712L61.2732 51.712V39.64C61.2732 39.304 61.3452 39.064 61.4892 38.92C61.6332 38.776 61.8652 38.704 62.1852 38.704H62.4012C63.0252 38.704 63.3372 39.016 63.3372 39.64V53.848C63.3372 54.184 63.2572 54.464 63.0972 54.688C62.9372 54.896 62.7052 55 62.4012 55H62.0892C61.4812 55 60.8972 54.592 60.3372 53.776L52.1052 41.8V54.088C52.1052 54.696 51.8172 55 51.2412 55H51.0012C50.3612 55 50.0412 54.696 50.0412 54.088V39.88C50.0412 39.096 50.3612 38.704 51.0012 38.704ZM69.0938 38.728H79.1738C79.6058 38.728 79.9498 38.856 80.2058 39.112C80.4618 39.368 80.5898 39.704 80.5898 40.12V40.624C80.5898 40.976 80.0858 41.712 79.0778 42.832C78.0858 43.936 76.5258 45.696 74.3978 48.112C72.2698 50.512 70.7978 52.168 69.9818 53.08V53.344H79.5338C79.8538 53.344 80.0858 53.416 80.2298 53.56C80.3738 53.688 80.4458 53.912 80.4458 54.232C80.4458 54.536 80.3738 54.744 80.2298 54.856C80.1018 54.952 79.8698 55 79.5338 55H69.0938C68.6618 55 68.3258 54.88 68.0858 54.64C67.8458 54.4 67.7258 54.072 67.7258 53.656V53.344C67.7258 52.864 68.1418 52.144 68.9738 51.184C69.8218 50.208 70.7818 49.128 71.8538 47.944C74.5258 44.968 76.6778 42.552 78.3098 40.696V40.384H69.0938C68.7738 40.384 68.5498 40.328 68.4218 40.216C68.2938 40.088 68.2298 39.864 68.2298 39.544C68.2298 39.224 68.2938 39.008 68.4218 38.896C68.5498 38.784 68.7738 38.728 69.0938 38.728ZM90.535 38.728H90.799C91.199 38.728 91.455 38.776 91.567 38.872C91.695 38.968 91.775 39.032 91.807 39.064C91.855 39.08 91.911 39.144 91.975 39.256C92.055 39.368 92.103 39.44 92.119 39.472C92.151 39.504 92.207 39.6 92.287 39.76C92.367 39.92 92.423 40.024 92.455 40.072C94.423 43.64 96.239 48.216 97.903 53.8C97.951 53.992 97.975 54.176 97.975 54.352C97.975 54.784 97.727 55 97.231 55H96.655C96.383 55 96.191 54.952 96.079 54.856C95.983 54.76 95.911 54.688 95.863 54.64C95.815 54.592 95.767 54.504 95.719 54.376C95.671 54.232 95.639 54.128 95.623 54.064C95.575 53.968 95.415 53.424 95.143 52.432C94.887 51.424 94.599 50.456 94.279 49.528H87.031C86.631 50.76 86.319 51.808 86.095 52.672C85.871 53.536 85.743 54 85.711 54.064C85.695 54.128 85.663 54.232 85.615 54.376C85.567 54.504 85.519 54.592 85.471 54.64C85.423 54.688 85.359 54.744 85.279 54.808C85.151 54.936 84.951 55 84.679 55H84.103C83.591 55 83.335 54.784 83.335 54.352C83.335 54.24 83.367 54.056 83.431 53.8C85.095 48.216 86.911 43.64 88.879 40.072C88.911 40.024 88.967 39.92 89.047 39.76C89.127 39.6 89.175 39.504 89.191 39.472C89.223 39.44 89.271 39.368 89.335 39.256C89.415 39.144 89.471 39.08 89.503 39.064C89.551 39.032 89.615 38.984 89.695 38.92C89.775 38.856 89.847 38.816 89.911 38.8C90.135 38.752 90.343 38.728 90.535 38.728ZM90.655 41.008C89.615 42.848 88.607 45.112 87.631 47.8H93.703C93.127 46.216 92.111 43.952 90.655 41.008ZM103.292 40.504V46.192H106.652C107.644 46.192 108.444 45.944 109.052 45.448C109.676 44.952 109.988 44.248 109.988 43.336C109.988 42.408 109.692 41.704 109.1 41.224C108.524 40.744 107.708 40.504 106.652 40.504H103.292ZM106.724 38.704C107.652 38.704 108.492 38.84 109.244 39.112C109.996 39.368 110.644 39.864 111.188 40.6C111.732 41.336 112.004 42.304 112.004 43.504C112.004 44.688 111.564 45.68 110.684 46.48C109.804 47.28 108.732 47.728 107.468 47.824C108.028 48.88 108.868 50.072 109.988 51.4C111.124 52.728 112.204 53.744 113.228 54.448C112.908 54.96 112.492 55.216 111.98 55.216C111.468 55.216 110.964 55.048 110.468 54.712C109.988 54.376 109.548 53.984 109.148 53.536C108.748 53.088 108.292 52.488 107.78 51.736C107.236 50.936 106.476 49.664 105.5 47.92H103.292V54.112C103.292 54.704 102.972 55 102.332 55H102.212C101.588 55 101.276 54.704 101.276 54.112V39.64C101.276 39.032 101.588 38.728 102.212 38.728L106.556 38.704C106.604 38.704 106.66 38.704 106.724 38.704ZM122.223 38.728H122.487C122.887 38.728 123.143 38.776 123.255 38.872C123.383 38.968 123.463 39.032 123.495 39.064C123.543 39.08 123.599 39.144 123.663 39.256C123.743 39.368 123.791 39.44 123.807 39.472C123.839 39.504 123.895 39.6 123.975 39.76C124.055 39.92 124.111 40.024 124.143 40.072C126.111 43.64 127.927 48.216 129.591 53.8C129.639 53.992 129.663 54.176 129.663 54.352C129.663 54.784 129.415 55 128.919 55H128.343C128.071 55 127.879 54.952 127.767 54.856C127.671 54.76 127.599 54.688 127.551 54.64C127.503 54.592 127.455 54.504 127.407 54.376C127.359 54.232 127.327 54.128 127.311 54.064C127.263 53.968 127.103 53.424 126.831 52.432C126.575 51.424 126.287 50.456 125.967 49.528H118.719C118.319 50.76 118.007 51.808 117.783 52.672C117.559 53.536 117.431 54 117.399 54.064C117.383 54.128 117.351 54.232 117.303 54.376C117.255 54.504 117.207 54.592 117.159 54.64C117.111 54.688 117.047 54.744 116.967 54.808C116.839 54.936 116.639 55 116.367 55H115.791C115.279 55 115.023 54.784 115.023 54.352C115.023 54.24 115.055 54.056 115.119 53.8C116.783 48.216 118.599 43.64 120.567 40.072C120.599 40.024 120.655 39.92 120.735 39.76C120.815 39.6 120.863 39.504 120.879 39.472C120.911 39.44 120.959 39.368 121.023 39.256C121.103 39.144 121.159 39.08 121.191 39.064C121.239 39.032 121.303 38.984 121.383 38.92C121.463 38.856 121.535 38.816 121.599 38.8C121.823 38.752 122.031 38.728 122.223 38.728ZM122.343 41.008C121.303 42.848 120.295 45.112 119.319 47.8H125.391C124.815 46.216 123.799 43.952 122.343 41.008Z" fill="#8A222D"/>
<mask id="path-2-inside-1_11_64" fill="white">
<path d="M59 4.01233C59 3.46004 59.4477 3.01233 60 3.01233V3.01233C60.5523 3.01233 61 3.46004 61 4.01233V27.0123C61 27.5646 60.5523 28.0123 60 28.0123V28.0123C59.4477 28.0123 59 27.5646 59 27.0123V4.01233Z"/>
</mask>
<path d="M59 4.01233V27.0123H63V4.01233H59ZM61 27.0123V4.01233H57V27.0123H61ZM60 26.0123C60.5523 26.0123 61 26.46 61 27.0123H57C57 28.6692 58.3431 30.0123 60 30.0123V26.0123ZM59 27.0123C59 26.46 59.4477 26.0123 60 26.0123V30.0123C61.6569 30.0123 63 28.6692 63 27.0123H59ZM60 5.01233C59.4477 5.01233 59 4.56461 59 4.01233H63C63 2.35547 61.6569 1.01233 60 1.01233V5.01233ZM60 1.01233C58.3431 1.01233 57 2.35548 57 4.01233H61C61 4.56461 60.5523 5.01233 60 5.01233V1.01233Z" fill="#075D53" mask="url(#path-2-inside-1_11_64)"/>
<path fill-rule="evenodd" clip-rule="evenodd" d="M63.9231 6.01233C63.4133 6.01233 63 6.4256 63 6.93541V27.0123C63 27.5646 63.4477 28.0123 64 28.0123C64.5523 28.0123 65 27.5646 65 27.0123V10.0532L71.5073 18.6885C71.8396 19.1296 72.4666 19.2177 72.9077 18.8854C73.3488 18.553 73.4369 17.926 73.1045 17.4849L64.8055 6.4717C64.7913 6.45147 64.7764 6.43175 64.7609 6.41257L64.7319 6.37411C64.6459 6.25996 64.5336 6.17733 64.4097 6.1283C64.2636 6.05413 64.0982 6.01233 63.9231 6.01233Z" fill="#144A82"/>
<path fill-rule="evenodd" clip-rule="evenodd" d="M74.6432 10.2479C74.2112 10.6369 73.5456 10.602 73.1566 10.17C72.8065 9.78119 72.8379 9.18217 73.2267 8.83207L79.4186 3.25686C79.6519 3.04681 79.9569 2.96685 80.2445 3.01234H87C87.5523 3.01234 88 3.46006 88 4.01234C88 4.56463 87.5523 5.01234 87 5.01234H80.4579L74.6432 10.2479ZM60 3.01222C59.4477 3.01222 59 3.45994 59 4.01222C59 4.56451 59.4477 5.01222 60 5.01222H65.4646L76.1241 18.8689L72.3042 22.2418L68.0351 17.0711C67.6621 16.6193 67.0068 16.5709 66.5714 16.9629C66.2086 17.2896 66.1665 17.8596 66.4773 18.2361L72.1066 25.0543L72.8554 24.3801L72.8554 24.3801L78.8167 19.1165L77.7657 17.8186L66.7898 3.55058C66.7703 3.52524 66.7501 3.50086 66.7292 3.47745C66.5023 3.19386 66.1533 3.01222 65.7619 3.01222H60Z" fill="#075D53"/>
<path d="M86 4.01233C86 3.46004 86.4477 3.01233 87 3.01233V3.01233C87.5523 3.01233 88 3.46004 88 4.01233V27.0123C88 27.5646 87.5523 28.0123 87 28.0123V28.0123C86.4477 28.0123 86 27.5646 86 27.0123V4.01233Z" fill="#075D53"/>
<path d="M82 8.01233C82 7.46004 82.4477 7.01233 83 7.01233H84V27.0123C84 27.5646 83.5523 28.0123 83 28.0123V28.0123C82.4477 28.0123 82 27.5646 82 27.0123V8.01233Z" fill="#144A82"/>
<path d="M77.2431 13.5877C76.8327 13.9572 76.2004 13.9241 75.8309 13.5137V13.5137C75.4613 13.1032 75.4945 12.4709 75.9049 12.1014L82.3447 6.30299C82.7551 5.93344 83.3874 5.96658 83.7569 6.37701V6.37701C84.1265 6.78743 84.0933 7.41973 83.6829 7.78928L77.2431 13.5877Z" fill="#144A82"/>
</svg>
