<svg width="197" height="74" viewBox="0 0 197 74" fill="none" xmlns="http://www.w3.org/2000/svg">
<path d="M0.473694 0.315796H196.263V72.7719H0.473694V0.315796Z" fill="#F5F5F5"/>
<path d="M13.8369 57.7544V50.7544H16.5669C17.1802 50.7544 17.7035 50.8511 18.1369 51.0444C18.5702 51.2377 18.9035 51.5177 19.1369 51.8844C19.3702 52.2511 19.4869 52.6877 19.4869 53.1944C19.4869 53.7011 19.3702 54.1377 19.1369 54.5044C18.9035 54.8644 18.5702 55.1444 18.1369 55.3444C17.7035 55.5377 17.1802 55.6344 16.5669 55.6344H14.3869L14.8369 55.1644V57.7544H13.8369ZM14.8369 55.2644L14.3869 54.7644H16.5369C17.1769 54.7644 17.6602 54.6277 17.9869 54.3544C18.3202 54.0811 18.4869 53.6944 18.4869 53.1944C18.4869 52.6944 18.3202 52.3077 17.9869 52.0344C17.6602 51.7611 17.1769 51.6244 16.5369 51.6244H14.3869L14.8369 51.1244V55.2644ZM23.3584 57.8144C22.7917 57.8144 22.2917 57.6977 21.8584 57.4644C21.4317 57.2311 21.0984 56.9111 20.8584 56.5044C20.625 56.0977 20.5084 55.6311 20.5084 55.1044C20.5084 54.5777 20.6217 54.1111 20.8484 53.7044C21.0817 53.2977 21.3984 52.9811 21.7984 52.7544C22.205 52.5211 22.6617 52.4044 23.1684 52.4044C23.6817 52.4044 24.135 52.5177 24.5284 52.7444C24.9217 52.9711 25.2284 53.2911 25.4484 53.7044C25.675 54.1111 25.7884 54.5877 25.7884 55.1344C25.7884 55.1744 25.785 55.2211 25.7784 55.2744C25.7784 55.3277 25.775 55.3777 25.7684 55.4244H21.2584V54.7344H25.2684L24.8784 54.9744C24.885 54.6344 24.815 54.3311 24.6684 54.0644C24.5217 53.7977 24.3184 53.5911 24.0584 53.4444C23.805 53.2911 23.5084 53.2144 23.1684 53.2144C22.835 53.2144 22.5384 53.2911 22.2784 53.4444C22.0184 53.5911 21.815 53.8011 21.6684 54.0744C21.5217 54.3411 21.4484 54.6477 21.4484 54.9944V55.1544C21.4484 55.5077 21.5284 55.8244 21.6884 56.1044C21.855 56.3777 22.085 56.5911 22.3784 56.7444C22.6717 56.8977 23.0084 56.9744 23.3884 56.9744C23.7017 56.9744 23.985 56.9211 24.2384 56.8144C24.4984 56.7077 24.725 56.5477 24.9184 56.3344L25.4484 56.9544C25.2084 57.2344 24.9084 57.4477 24.5484 57.5944C24.195 57.7411 23.7984 57.8144 23.3584 57.8144ZM27.5777 57.7544V52.4544H28.5377V56.3144L31.7877 52.4544H32.6577V57.7544H31.6977V53.8944L28.4577 57.7544H27.5777ZM30.0577 51.7644C29.571 51.7644 29.1877 51.6477 28.9077 51.4144C28.6343 51.1744 28.4943 50.8311 28.4877 50.3844H29.1377C29.1443 50.6377 29.2277 50.8377 29.3877 50.9844C29.5543 51.1311 29.7743 51.2044 30.0477 51.2044C30.321 51.2044 30.541 51.1311 30.7077 50.9844C30.8743 50.8377 30.961 50.6377 30.9677 50.3844H31.6377C31.631 50.8311 31.4877 51.1744 31.2077 51.4144C30.9277 51.6477 30.5443 51.7644 30.0577 51.7644ZM35.871 57.7544V53.0444L36.111 53.2944H33.931V52.4544H38.771V53.2944H36.601L36.831 53.0444V57.7544H35.871ZM40.0527 57.7544V52.4544H41.0127V56.3144L44.2627 52.4544H45.1327V57.7544H44.1727V53.8944L40.9327 57.7544H40.0527ZM47.296 57.7544V52.4544H48.256V54.7044H51.276V52.4544H52.236V57.7544H51.276V55.5344H48.256V57.7544H47.296ZM54.4027 57.7544V52.4544H58.3027V53.2944H55.1327L55.3627 53.0744V57.7544H54.4027ZM64.841 57.8144C64.3077 57.8144 63.8344 57.6977 63.421 57.4644C63.0077 57.2311 62.681 56.9111 62.441 56.5044C62.201 56.0911 62.081 55.6244 62.081 55.1044C62.081 54.5777 62.201 54.1111 62.441 53.7044C62.681 53.2977 63.0077 52.9811 63.421 52.7544C63.8344 52.5211 64.3077 52.4044 64.841 52.4044C65.3677 52.4044 65.8377 52.5211 66.251 52.7544C66.671 52.9811 66.9977 53.2977 67.231 53.7044C67.471 54.1044 67.591 54.5711 67.591 55.1044C67.591 55.6311 67.471 56.0977 67.231 56.5044C66.9977 56.9111 66.671 57.2311 66.251 57.4644C65.8377 57.6977 65.3677 57.8144 64.841 57.8144ZM64.841 56.9744C65.181 56.9744 65.4844 56.8977 65.751 56.7444C66.0244 56.5911 66.2377 56.3744 66.391 56.0944C66.5444 55.8077 66.621 55.4777 66.621 55.1044C66.621 54.7244 66.5444 54.3977 66.391 54.1244C66.2377 53.8444 66.0244 53.6277 65.751 53.4744C65.4844 53.3211 65.181 53.2444 64.841 53.2444C64.501 53.2444 64.1977 53.3211 63.931 53.4744C63.6644 53.6277 63.451 53.8444 63.291 54.1244C63.131 54.3977 63.051 54.7244 63.051 55.1044C63.051 55.4777 63.131 55.8077 63.291 56.0944C63.451 56.3744 63.6644 56.5911 63.931 56.7444C64.1977 56.8977 64.501 56.9744 64.841 56.9744ZM72.0873 57.8144C71.6473 57.8144 71.2439 57.7144 70.8773 57.5144C70.5173 57.3077 70.2273 57.0044 70.0073 56.6044C69.7939 56.2044 69.6873 55.7044 69.6873 55.1044C69.6873 54.5044 69.7906 54.0044 69.9973 53.6044C70.2106 53.2044 70.4973 52.9044 70.8573 52.7044C71.2239 52.5044 71.6339 52.4044 72.0873 52.4044C72.6073 52.4044 73.0673 52.5177 73.4673 52.7444C73.8673 52.9711 74.1839 53.2877 74.4173 53.6944C74.6506 54.0944 74.7673 54.5644 74.7673 55.1044C74.7673 55.6444 74.6506 56.1177 74.4173 56.5244C74.1839 56.9311 73.8673 57.2477 73.4673 57.4744C73.0673 57.7011 72.6073 57.8144 72.0873 57.8144ZM69.2773 59.6944V52.4544H70.1973V53.8844L70.1373 55.1144L70.2373 56.3444V59.6944H69.2773ZM72.0073 56.9744C72.3473 56.9744 72.6506 56.8977 72.9173 56.7444C73.1906 56.5911 73.4039 56.3744 73.5573 56.0944C73.7173 55.8077 73.7973 55.4777 73.7973 55.1044C73.7973 54.7244 73.7173 54.3977 73.5573 54.1244C73.4039 53.8444 73.1906 53.6277 72.9173 53.4744C72.6506 53.3211 72.3473 53.2444 72.0073 53.2444C71.6739 53.2444 71.3706 53.3211 71.0973 53.4744C70.8306 53.6277 70.6173 53.8444 70.4573 54.1244C70.3039 54.3977 70.2273 54.7244 70.2273 55.1044C70.2273 55.4777 70.3039 55.8077 70.4573 56.0944C70.6173 56.3744 70.8306 56.5911 71.0973 56.7444C71.3706 56.8977 71.6739 56.9744 72.0073 56.9744ZM76.462 57.7544V52.4544H80.362V53.2944H77.192L77.422 53.0744V57.7544H76.462ZM84.8949 57.7544V56.6344L84.8449 56.4244V54.5144C84.8449 54.1077 84.7249 53.7944 84.4849 53.5744C84.2515 53.3477 83.8982 53.2344 83.4249 53.2344C83.1115 53.2344 82.8049 53.2877 82.5049 53.3944C82.2049 53.4944 81.9515 53.6311 81.7449 53.8044L81.3449 53.0844C81.6182 52.8644 81.9449 52.6977 82.3249 52.5844C82.7115 52.4644 83.1149 52.4044 83.5349 52.4044C84.2615 52.4044 84.8215 52.5811 85.2149 52.9344C85.6082 53.2877 85.8049 53.8277 85.8049 54.5544V57.7544H84.8949ZM83.1549 57.8144C82.7615 57.8144 82.4149 57.7477 82.1149 57.6144C81.8215 57.4811 81.5949 57.2977 81.4349 57.0644C81.2749 56.8244 81.1949 56.5544 81.1949 56.2544C81.1949 55.9677 81.2615 55.7077 81.3949 55.4744C81.5349 55.2411 81.7582 55.0544 82.0649 54.9144C82.3782 54.7744 82.7982 54.7044 83.3249 54.7044H85.0049V55.3944H83.3649C82.8849 55.3944 82.5615 55.4744 82.3949 55.6344C82.2282 55.7944 82.1449 55.9877 82.1449 56.2144C82.1449 56.4744 82.2482 56.6844 82.4549 56.8444C82.6615 56.9977 82.9482 57.0744 83.3149 57.0744C83.6749 57.0744 83.9882 56.9944 84.2549 56.8344C84.5282 56.6744 84.7249 56.4411 84.8449 56.1344L85.0349 56.7944C84.9082 57.1077 84.6849 57.3577 84.3649 57.5444C84.0449 57.7244 83.6415 57.8144 83.1549 57.8144ZM87.8335 57.7544V52.4544H88.7935V54.7044H91.8135V52.4544H92.7735V57.7544H91.8135V55.5344H88.7935V57.7544H87.8335ZM94.9402 57.7544V52.4544H95.9002V56.3144L99.1502 52.4544H100.02V57.7544H99.0602V53.8944L95.8202 57.7544H94.9402ZM103.646 57.8244C103.246 57.8244 102.852 57.7744 102.466 57.6744C102.086 57.5677 101.746 57.4177 101.446 57.2244L101.736 56.4944C101.989 56.6544 102.279 56.7811 102.606 56.8744C102.932 56.9611 103.262 57.0044 103.596 57.0044C103.902 57.0044 104.166 56.9677 104.386 56.8944C104.612 56.8211 104.786 56.7211 104.906 56.5944C105.026 56.4611 105.086 56.3077 105.086 56.1344C105.086 55.8877 104.976 55.6977 104.756 55.5644C104.536 55.4311 104.229 55.3644 103.836 55.3644H102.876V54.6744H103.776C104.009 54.6744 104.212 54.6477 104.386 54.5944C104.559 54.5411 104.692 54.4611 104.786 54.3544C104.886 54.2411 104.936 54.1111 104.936 53.9644C104.936 53.8044 104.879 53.6677 104.766 53.5544C104.652 53.4411 104.492 53.3544 104.286 53.2944C104.086 53.2344 103.849 53.2044 103.576 53.2044C103.309 53.2111 103.036 53.2477 102.756 53.3144C102.482 53.3811 102.202 53.4844 101.916 53.6244L101.656 52.8744C101.976 52.7211 102.289 52.6044 102.596 52.5244C102.909 52.4377 103.219 52.3911 103.526 52.3844C103.986 52.3711 104.396 52.4244 104.756 52.5444C105.116 52.6577 105.399 52.8244 105.606 53.0444C105.819 53.2644 105.926 53.5244 105.926 53.8244C105.926 54.0777 105.846 54.3044 105.686 54.5044C105.526 54.6977 105.312 54.8511 105.046 54.9644C104.779 55.0777 104.472 55.1344 104.126 55.1344L104.166 54.9044C104.759 54.9044 105.226 55.0211 105.566 55.2544C105.906 55.4877 106.076 55.8044 106.076 56.2044C106.076 56.5244 105.969 56.8077 105.756 57.0544C105.542 57.2944 105.252 57.4844 104.886 57.6244C104.526 57.7577 104.112 57.8244 103.646 57.8244ZM111.085 57.7544V56.6344L111.035 56.4244V54.5144C111.035 54.1077 110.915 53.7944 110.675 53.5744C110.442 53.3477 110.088 53.2344 109.615 53.2344C109.302 53.2344 108.995 53.2877 108.695 53.3944C108.395 53.4944 108.142 53.6311 107.935 53.8044L107.535 53.0844C107.808 52.8644 108.135 52.6977 108.515 52.5844C108.902 52.4644 109.305 52.4044 109.725 52.4044C110.452 52.4044 111.012 52.5811 111.405 52.9344C111.798 53.2877 111.995 53.8277 111.995 54.5544V57.7544H111.085ZM109.345 57.8144C108.952 57.8144 108.605 57.7477 108.305 57.6144C108.012 57.4811 107.785 57.2977 107.625 57.0644C107.465 56.8244 107.385 56.5544 107.385 56.2544C107.385 55.9677 107.452 55.7077 107.585 55.4744C107.725 55.2411 107.948 55.0544 108.255 54.9144C108.568 54.7744 108.988 54.7044 109.515 54.7044H111.195V55.3944H109.555C109.075 55.3944 108.752 55.4744 108.585 55.6344C108.418 55.7944 108.335 55.9877 108.335 56.2144C108.335 56.4744 108.438 56.6844 108.645 56.8444C108.852 56.9977 109.138 57.0744 109.505 57.0744C109.865 57.0744 110.178 56.9944 110.445 56.8344C110.718 56.6744 110.915 56.4411 111.035 56.1344L111.225 56.7944C111.098 57.1077 110.875 57.3577 110.555 57.5444C110.235 57.7244 109.832 57.8144 109.345 57.8144ZM114.024 57.7544V52.4544H114.984V56.9144H117.884V52.4544H118.844V57.7544H114.024ZM118.774 58.9844V57.7044L119.014 57.7544H117.884V56.9144H119.684V58.9844H118.774ZM121.228 57.7544V52.4544H122.188V56.3144L125.438 52.4544H126.308V57.7544H125.348V53.8944L122.108 57.7544H121.228ZM128.471 57.7544V52.4544H129.431V56.3144L132.681 52.4544H133.551V57.7544H132.591V53.8944L129.351 57.7544H128.471ZM138.7 57.7544V52.4544H141.16C141.78 52.4544 142.267 52.5744 142.62 52.8144C142.98 53.0477 143.16 53.3811 143.16 53.8144C143.16 54.2477 142.99 54.5844 142.65 54.8244C142.317 55.0577 141.874 55.1744 141.32 55.1744L141.47 54.9144C142.104 54.9144 142.574 55.0311 142.88 55.2644C143.187 55.4977 143.34 55.8411 143.34 56.2944C143.34 56.7544 143.167 57.1144 142.82 57.3744C142.48 57.6277 141.957 57.7544 141.25 57.7544H138.7ZM139.64 57.0144H141.18C141.58 57.0144 141.88 56.9544 142.08 56.8344C142.28 56.7077 142.38 56.5077 142.38 56.2344C142.38 55.9544 142.287 55.7511 142.1 55.6244C141.92 55.4911 141.634 55.4244 141.24 55.4244H139.64V57.0144ZM139.64 54.7344H141.08C141.447 54.7344 141.724 54.6677 141.91 54.5344C142.104 54.3944 142.2 54.2011 142.2 53.9544C142.2 53.7011 142.104 53.5111 141.91 53.3844C141.724 53.2577 141.447 53.1944 141.08 53.1944H139.64V54.7344ZM152.438 57.7544V55.4744L152.698 55.7144H150.508C149.942 55.7144 149.452 55.6177 149.038 55.4244C148.632 55.2311 148.318 54.9544 148.098 54.5944C147.885 54.2277 147.778 53.7877 147.778 53.2744C147.778 52.7411 147.895 52.2877 148.128 51.9144C148.362 51.5344 148.692 51.2477 149.118 51.0544C149.545 50.8544 150.042 50.7544 150.608 50.7544H153.418V57.7544H152.438ZM147.778 57.7544L149.508 55.2744H150.528L148.838 57.7544H147.778ZM152.438 55.1544V51.3344L152.698 51.6244H150.648C150.048 51.6244 149.588 51.7644 149.268 52.0444C148.948 52.3177 148.788 52.7244 148.788 53.2644C148.788 53.7777 148.938 54.1744 149.238 54.4544C149.545 54.7344 149.995 54.8744 150.588 54.8744H152.698L152.438 55.1544ZM155.743 57.7544V52.4544H156.703V54.7044H159.723V52.4544H160.683V57.7544H159.723V55.5344H156.703V57.7544H155.743ZM166.47 57.3044V53.2944H164.17L164.12 54.3144C164.106 54.6477 164.083 54.9711 164.05 55.2844C164.023 55.5911 163.976 55.8744 163.91 56.1344C163.85 56.3944 163.76 56.6077 163.64 56.7744C163.52 56.9411 163.36 57.0444 163.16 57.0844L162.21 56.9144C162.416 56.9211 162.583 56.8544 162.71 56.7144C162.836 56.5677 162.933 56.3677 163 56.1144C163.073 55.8611 163.126 55.5744 163.16 55.2544C163.193 54.9277 163.22 54.5911 163.24 54.2444L163.32 52.4544H167.43V57.3044H166.47ZM162 58.9844V56.9144H168.24V58.9844H167.34V57.7544H162.91V58.9844H162ZM172.15 57.8144C171.584 57.8144 171.084 57.6977 170.65 57.4644C170.224 57.2311 169.89 56.9111 169.65 56.5044C169.417 56.0977 169.3 55.6311 169.3 55.1044C169.3 54.5777 169.414 54.1111 169.64 53.7044C169.874 53.2977 170.19 52.9811 170.59 52.7544C170.997 52.5211 171.454 52.4044 171.96 52.4044C172.474 52.4044 172.927 52.5177 173.32 52.7444C173.714 52.9711 174.02 53.2911 174.24 53.7044C174.467 54.1111 174.58 54.5877 174.58 55.1344C174.58 55.1744 174.577 55.2211 174.57 55.2744C174.57 55.3277 174.567 55.3777 174.56 55.4244H170.05V54.7344H174.06L173.67 54.9744C173.677 54.6344 173.607 54.3311 173.46 54.0644C173.314 53.7977 173.11 53.5911 172.85 53.4444C172.597 53.2911 172.3 53.2144 171.96 53.2144C171.627 53.2144 171.33 53.2911 171.07 53.4444C170.81 53.5911 170.607 53.8011 170.46 54.0744C170.314 54.3411 170.24 54.6477 170.24 54.9944V55.1544C170.24 55.5077 170.32 55.8244 170.48 56.1044C170.647 56.3777 170.877 56.5911 171.17 56.7444C171.464 56.8977 171.8 56.9744 172.18 56.9744C172.494 56.9744 172.777 56.9211 173.03 56.8144C173.29 56.7077 173.517 56.5477 173.71 56.3344L174.24 56.9544C174 57.2344 173.7 57.4477 173.34 57.5944C172.987 57.7411 172.59 57.8144 172.15 57.8144ZM180.209 57.7544L178.159 55.1744L178.949 54.6944L181.339 57.7544H180.209ZM176.369 57.7544V52.4544H177.329V57.7544H176.369ZM177.039 55.5144V54.6944H178.789V55.5144H177.039ZM179.029 55.2144L178.139 55.0944L180.169 52.4544H181.199L179.029 55.2144ZM184.78 57.8144C184.24 57.8144 183.757 57.6977 183.33 57.4644C182.91 57.2311 182.58 56.9111 182.34 56.5044C182.1 56.0977 181.98 55.6311 181.98 55.1044C181.98 54.5777 182.1 54.1111 182.34 53.7044C182.58 53.2977 182.91 52.9811 183.33 52.7544C183.757 52.5211 184.24 52.4044 184.78 52.4044C185.26 52.4044 185.687 52.5011 186.06 52.6944C186.44 52.8811 186.734 53.1611 186.94 53.5344L186.21 54.0044C186.037 53.7444 185.824 53.5544 185.57 53.4344C185.324 53.3077 185.057 53.2444 184.77 53.2444C184.424 53.2444 184.114 53.3211 183.84 53.4744C183.567 53.6277 183.35 53.8444 183.19 54.1244C183.03 54.3977 182.95 54.7244 182.95 55.1044C182.95 55.4844 183.03 55.8144 183.19 56.0944C183.35 56.3744 183.567 56.5911 183.84 56.7444C184.114 56.8977 184.424 56.9744 184.77 56.9744C185.057 56.9744 185.324 56.9144 185.57 56.7944C185.824 56.6677 186.037 56.4744 186.21 56.2144L186.94 56.6744C186.734 57.0411 186.44 57.3244 186.06 57.5244C185.687 57.7177 185.26 57.8144 184.78 57.8144Z" fill="black"/>
<path d="M48.0517 30.096C47.4597 30.096 46.8837 30.004 46.3237 29.82C45.7717 29.636 45.3197 29.388 44.9677 29.076L45.5197 28.128C45.7997 28.392 46.1637 28.608 46.6117 28.776C47.0597 28.944 47.5357 29.028 48.0397 29.028C48.6797 29.028 49.1717 28.892 49.5157 28.62C49.8597 28.348 50.0317 27.984 50.0317 27.528C50.0317 27.216 49.9557 26.944 49.8037 26.712C49.6517 26.48 49.3877 26.304 49.0117 26.184C48.6437 26.056 48.1357 25.992 47.4877 25.992H45.5797L46.0237 21.6H50.7637V22.644H46.4677L47.0917 22.056L46.7437 25.524L46.1197 24.948H47.7397C48.5797 24.948 49.2557 25.056 49.7677 25.272C50.2797 25.488 50.6517 25.788 50.8837 26.172C51.1157 26.548 51.2317 26.984 51.2317 27.48C51.2317 27.96 51.1157 28.4 50.8837 28.8C50.6517 29.192 50.2997 29.508 49.8277 29.748C49.3637 29.98 48.7717 30.096 48.0517 30.096ZM52.2903 31.776L52.8903 29.352L53.0463 30.048C52.8143 30.048 52.6183 29.976 52.4583 29.832C52.3063 29.688 52.2303 29.492 52.2303 29.244C52.2303 29.004 52.3063 28.808 52.4583 28.656C52.6183 28.504 52.8103 28.428 53.0343 28.428C53.2663 28.428 53.4543 28.508 53.5983 28.668C53.7423 28.82 53.8143 29.012 53.8143 29.244C53.8143 29.324 53.8063 29.404 53.7903 29.484C53.7823 29.556 53.7623 29.644 53.7303 29.748C53.7063 29.844 53.6663 29.964 53.6103 30.108L53.0463 31.776H52.2903ZM58.2404 30.096C57.5844 30.096 56.9964 29.928 56.4764 29.592C55.9644 29.256 55.5564 28.768 55.2524 28.128C54.9564 27.488 54.8084 26.712 54.8084 25.8C54.8084 24.888 54.9564 24.112 55.2524 23.472C55.5564 22.832 55.9644 22.344 56.4764 22.008C56.9964 21.672 57.5844 21.504 58.2404 21.504C58.8884 21.504 59.4724 21.672 59.9924 22.008C60.5124 22.344 60.9204 22.832 61.2164 23.472C61.5124 24.112 61.6604 24.888 61.6604 25.8C61.6604 26.712 61.5124 27.488 61.2164 28.128C60.9204 28.768 60.5124 29.256 59.9924 29.592C59.4724 29.928 58.8884 30.096 58.2404 30.096ZM58.2404 29.028C58.6804 29.028 59.0644 28.908 59.3924 28.668C59.7284 28.428 59.9884 28.068 60.1724 27.588C60.3644 27.108 60.4604 26.512 60.4604 25.8C60.4604 25.088 60.3644 24.492 60.1724 24.012C59.9884 23.532 59.7284 23.172 59.3924 22.932C59.0644 22.692 58.6804 22.572 58.2404 22.572C57.8004 22.572 57.4124 22.692 57.0764 22.932C56.7404 23.172 56.4764 23.532 56.2844 24.012C56.1004 24.492 56.0084 25.088 56.0084 25.8C56.0084 26.512 56.1004 27.108 56.2844 27.588C56.4764 28.068 56.7404 28.428 57.0764 28.668C57.4124 28.908 57.8004 29.028 58.2404 29.028Z" fill="black"/>
<path d="M166.749 17.8818C166.839 17.605 167.23 17.605 167.32 17.8818L168.98 23.0112C169.02 23.135 169.136 23.2188 169.266 23.2188H174.641C174.931 23.2188 175.052 23.5901 174.818 23.7612L170.467 26.9343C170.362 27.0107 170.318 27.1457 170.358 27.269L172.02 32.4017C172.109 32.6783 171.792 32.9077 171.557 32.7364L167.211 29.5666C167.106 29.4898 166.963 29.4898 166.858 29.5666L162.512 32.7364C162.277 32.9077 161.96 32.6783 162.049 32.4017L163.711 27.269C163.751 27.1457 163.707 27.0107 163.602 26.9343L159.251 23.7612C159.017 23.5901 159.138 23.2188 159.428 23.2188H164.803C164.933 23.2188 165.049 23.135 165.089 23.0112L166.749 17.8818Z" fill="#FCD117"/>
<path d="M145.232 17.8818C145.321 17.605 145.713 17.605 145.803 17.8818L147.463 23.0112C147.503 23.135 147.618 23.2188 147.748 23.2188H153.124C153.414 23.2188 153.535 23.5901 153.3 23.7612L148.95 26.9343C148.845 27.0107 148.801 27.1457 148.841 27.269L150.502 32.4017C150.592 32.6783 150.275 32.9077 150.04 32.7364L145.694 29.5666C145.589 29.4898 145.446 29.4898 145.34 29.5666L140.994 32.7364C140.759 32.9077 140.443 32.6783 140.532 32.4017L142.193 27.269C142.233 27.1457 142.19 27.0107 142.085 26.9343L137.734 23.7612C137.5 23.5901 137.621 23.2188 137.911 23.2188H143.286C143.416 23.2188 143.532 23.135 143.572 23.0112L145.232 17.8818Z" fill="#FCD117"/>
<path d="M123.715 17.8818C123.804 17.605 124.196 17.605 124.285 17.8818L125.946 23.0112C125.986 23.135 126.101 23.2188 126.231 23.2188H131.606C131.897 23.2188 132.018 23.5901 131.783 23.7612L127.432 26.9343C127.328 27.0107 127.284 27.1457 127.324 27.269L128.985 32.4017C129.075 32.6783 128.758 32.9077 128.523 32.7364L124.177 29.5666C124.071 29.4898 123.929 29.4898 123.823 29.5666L119.477 32.7364C119.242 32.9077 118.925 32.6783 119.015 32.4017L120.676 27.269C120.716 27.1457 120.672 27.0107 120.568 26.9343L116.217 23.7612C115.982 23.5901 116.103 23.2188 116.394 23.2188H121.769C121.899 23.2188 122.014 23.135 122.054 23.0112L123.715 17.8818Z" fill="#FCD117"/>
<path d="M102.197 17.8818C102.287 17.605 102.679 17.605 102.768 17.8818L104.428 23.0112C104.468 23.135 104.584 23.2188 104.714 23.2188H110.089C110.379 23.2188 110.5 23.5901 110.266 23.7612L105.915 26.9343C105.81 27.0107 105.767 27.1457 105.807 27.269L107.468 32.4017C107.557 32.6783 107.241 32.9077 107.006 32.7364L102.66 29.5666C102.554 29.4898 102.411 29.4898 102.306 29.5666L97.9598 32.7364C97.7249 32.9077 97.4081 32.6783 97.4976 32.4017L99.1589 27.269C99.1988 27.1457 99.155 27.0107 99.0503 26.9343L94.6997 23.7612C94.4651 23.5901 94.5861 23.2188 94.8765 23.2188H100.252C100.382 23.2188 100.497 23.135 100.537 23.0112L102.197 17.8818Z" fill="#FCD117"/>
<path d="M80.6801 17.8818C80.7697 17.605 81.1613 17.605 81.2509 17.8818L82.9112 23.0112C82.9513 23.135 83.0665 23.2188 83.1966 23.2188H88.5718C88.8621 23.2188 88.9831 23.5901 88.7486 23.7612L84.398 26.9343C84.2932 27.0107 84.2494 27.1457 84.2893 27.269L85.9506 32.4017C86.0402 32.6783 85.7233 32.9077 85.4884 32.7364L81.1423 29.5666C81.037 29.4898 80.8941 29.4898 80.7887 29.5666L76.4426 32.7364C76.2077 32.9077 75.8909 32.6783 75.9804 32.4017L77.6417 27.269C77.6816 27.1457 77.6378 27.0107 77.533 26.9343L73.1825 23.7612C72.9479 23.5901 73.0689 23.2188 73.3592 23.2188H78.7344C78.8645 23.2188 78.9798 23.135 79.0198 23.0112L80.6801 17.8818Z" fill="#FCD117"/>
<path d="M39 25C39 30.5228 34.5228 35 29 35C23.4772 35 19 30.5228 19 25C19 19.4772 23.4772 15 29 15C34.5228 15 39 19.4772 39 25Z" fill="#FF3E3E"/>
<path d="M31.0576 30V27.036L31.3956 27.348H28.5486C27.8119 27.348 27.1749 27.2223 26.6376 26.971C26.1089 26.7197 25.7016 26.36 25.4156 25.892C25.1383 25.4153 24.9996 24.8433 24.9996 24.176C24.9996 23.4827 25.1513 22.8933 25.4546 22.408C25.7579 21.914 26.1869 21.5413 26.7416 21.29C27.2963 21.03 27.9419 20.9 28.6786 20.9H32.3316V30H31.0576ZM24.9996 30L27.2486 26.776H28.5746L26.3776 30H24.9996ZM31.0576 26.62V21.654L31.3956 22.031H28.7306C27.9506 22.031 27.3526 22.213 26.9366 22.577C26.5206 22.9323 26.3126 23.461 26.3126 24.163C26.3126 24.8303 26.5076 25.346 26.8976 25.71C27.2963 26.074 27.8813 26.256 28.6526 26.256H31.3956L31.0576 26.62Z" fill="#F0F0F0"/>
</svg>
