<svg width="184" height="61" viewBox="0 0 184 61" fill="none" xmlns="http://www.w3.org/2000/svg">
<rect width="184" height="61" rx="8" fill="#F5F5F5"/>
<circle cx="20.5" cy="20.5" r="12.5" fill="#FC3F1D"/>
<path d="M24.6222 26H22.8608V15.8693H20.6562C20.0805 15.8693 19.6127 15.9564 19.2528 16.1307C18.893 16.3011 18.6297 16.5473 18.4631 16.8693C18.2964 17.1913 18.2131 17.572 18.2131 18.0114C18.2131 18.447 18.2964 18.8201 18.4631 19.1307C18.6297 19.4413 18.8911 19.678 19.2472 19.8409C19.6032 20.0038 20.0672 20.0852 20.6392 20.0852H23.6222V21.5966H20.4744C19.5767 21.5966 18.8286 21.447 18.2301 21.1477C17.6354 20.8485 17.1884 20.4299 16.8892 19.892C16.5938 19.3504 16.446 18.7235 16.446 18.0114C16.446 17.2955 16.5938 16.6648 16.8892 16.1193C17.1847 15.5701 17.6297 15.1402 18.2244 14.8295C18.8229 14.5189 19.571 14.3636 20.4688 14.3636H24.6222V26ZM18.8778 20.75H20.821L17.9972 26H16.0028L18.8778 20.75Z" fill="white"/>
<path d="M39.3771 23.6136V22.4545L44.4908 14.3636H45.3317V16.1591H44.7635L40.8999 22.2727V22.3636H47.7862V23.6136H39.3771ZM44.8544 26V23.2614V22.7216V14.3636H46.1953V26H44.8544ZM51.3913 24.4091L51.3004 25.0227C51.236 25.4545 51.1375 25.9167 51.005 26.4091C50.8762 26.9015 50.7417 27.3655 50.6016 27.8011C50.4614 28.2367 50.3459 28.5833 50.255 28.8409H49.2322C49.2815 28.5985 49.3459 28.2784 49.4254 27.8807C49.505 27.483 49.5845 27.0379 49.6641 26.5455C49.7474 26.0568 49.8156 25.5568 49.8686 25.0455L49.9368 24.4091H51.3913ZM53.9822 26L59.1868 15.7045V15.6136H53.1868V14.3636H60.6413V15.6818L55.4595 26H53.9822Z" fill="black"/>
<path d="M78.6196 12.6708C78.7393 12.3023 79.2607 12.3023 79.3804 12.6708L80.9308 17.4425C80.9844 17.6073 81.138 17.7188 81.3112 17.7188H86.3284C86.7159 17.7188 86.877 18.2147 86.5635 18.4425L82.5046 21.3915C82.3644 21.4933 82.3057 21.6739 82.3592 21.8387L83.9096 26.6103C84.0294 26.9789 83.6076 27.2853 83.2941 27.0575L79.2351 24.1085C79.0949 24.0067 78.9051 24.0067 78.7649 24.1085L74.7059 27.0575C74.3924 27.2853 73.9706 26.9789 74.0904 26.6103L75.6408 21.8387C75.6943 21.6739 75.6356 21.4933 75.4954 21.3915L71.4365 18.4425C71.123 18.2147 71.2841 17.7188 71.6716 17.7188H76.6888C76.862 17.7188 77.0156 17.6073 77.0692 17.4425L78.6196 12.6708Z" fill="#FDC707"/>
<path d="M99.6196 12.6708C99.7393 12.3023 100.261 12.3023 100.38 12.6708L101.931 17.4425C101.984 17.6073 102.138 17.7188 102.311 17.7188H107.328C107.716 17.7188 107.877 18.2147 107.564 18.4425L103.505 21.3915C103.364 21.4933 103.306 21.6739 103.359 21.8387L104.91 26.6103C105.029 26.9789 104.608 27.2853 104.294 27.0575L100.235 24.1085C100.095 24.0067 99.9051 24.0067 99.7649 24.1085L95.7059 27.0575C95.3924 27.2853 94.9706 26.9789 95.0904 26.6103L96.6408 21.8387C96.6943 21.6739 96.6356 21.4933 96.4954 21.3915L92.4365 18.4425C92.123 18.2147 92.2841 17.7188 92.6716 17.7188H97.6888C97.862 17.7188 98.0156 17.6073 98.0692 17.4425L99.6196 12.6708Z" fill="#FDC707"/>
<path d="M120.62 12.6708C120.739 12.3023 121.261 12.3023 121.38 12.6708L122.931 17.4425C122.984 17.6073 123.138 17.7188 123.311 17.7188H128.328C128.716 17.7188 128.877 18.2147 128.564 18.4425L124.505 21.3915C124.364 21.4933 124.306 21.6739 124.359 21.8387L125.91 26.6103C126.029 26.9789 125.608 27.2853 125.294 27.0575L121.235 24.1085C121.095 24.0067 120.905 24.0067 120.765 24.1085L116.706 27.0575C116.392 27.2853 115.971 26.9789 116.09 26.6103L117.641 21.8387C117.694 21.6739 117.636 21.4933 117.495 21.3915L113.436 18.4425C113.123 18.2147 113.284 17.7188 113.672 17.7188H118.689C118.862 17.7188 119.016 17.6073 119.069 17.4425L120.62 12.6708Z" fill="#FDC707"/>
<path d="M141.62 12.6708C141.739 12.3023 142.261 12.3023 142.38 12.6708L143.931 17.4425C143.984 17.6073 144.138 17.7188 144.311 17.7188H149.328C149.716 17.7188 149.877 18.2147 149.564 18.4425L145.505 21.3915C145.364 21.4933 145.306 21.6739 145.359 21.8387L146.91 26.6103C147.029 26.9789 146.608 27.2853 146.294 27.0575L142.235 24.1085C142.095 24.0067 141.905 24.0067 141.765 24.1085L137.706 27.0575C137.392 27.2853 136.971 26.9789 137.09 26.6103L138.641 21.8387C138.694 21.6739 138.636 21.4933 138.495 21.3915L134.436 18.4425C134.123 18.2147 134.284 17.7188 134.672 17.7188H139.689C139.862 17.7188 140.016 17.6073 140.069 17.4425L141.62 12.6708Z" fill="#FDC707"/>
<path d="M162.62 12.6708C162.739 12.3023 163.261 12.3023 163.38 12.6708L164.931 17.4425C164.984 17.6073 165.138 17.7188 165.311 17.7188H170.328C170.716 17.7188 170.877 18.2147 170.564 18.4425L166.505 21.3915C166.364 21.4933 166.306 21.6739 166.359 21.8387L167.91 26.6103C168.029 26.9789 167.608 27.2853 167.294 27.0575L163.235 24.1085C163.095 24.0067 162.905 24.0067 162.765 24.1085L158.706 27.0575C158.392 27.2853 157.971 26.9789 158.09 26.6103L159.641 21.8387C159.694 21.6739 159.636 21.4933 159.495 21.3915L155.436 18.4425C155.123 18.2147 155.284 17.7188 155.672 17.7188H160.689C160.862 17.7188 161.016 17.6073 161.069 17.4425L162.62 12.6708Z" fill="#FDC707"/>
<rect x="167" y="13" width="7" height="16" fill="#F5F5F5"/>
<path d="M17.1873 51V43.7273H19.6447C20.2153 43.7273 20.6816 43.8303 21.0439 44.0362C21.4084 44.2398 21.6783 44.5156 21.8535 44.8636C22.0287 45.2116 22.1163 45.5999 22.1163 46.0284C22.1163 46.4569 22.0287 46.8464 21.8535 47.1967C21.6807 47.5471 21.4132 47.8265 21.051 48.0348C20.6887 48.2408 20.2247 48.3438 19.6589 48.3438H17.8975V47.5625H19.6305C20.0211 47.5625 20.3348 47.495 20.5716 47.3601C20.8083 47.2251 20.9799 47.0429 21.0865 46.8132C21.1954 46.5812 21.2498 46.3196 21.2498 46.0284C21.2498 45.7372 21.1954 45.4768 21.0865 45.2472C20.9799 45.0175 20.8071 44.8376 20.568 44.7074C20.3289 44.5748 20.0117 44.5085 19.6163 44.5085H18.068V51H17.1873ZM25.6497 51.1136C25.1241 51.1136 24.6708 50.9976 24.2896 50.7656C23.9108 50.5312 23.6184 50.2045 23.4125 49.7855C23.2089 49.3641 23.1071 48.8741 23.1071 48.3153C23.1071 47.7566 23.2089 47.2642 23.4125 46.8381C23.6184 46.4096 23.9049 46.0758 24.2718 45.8366C24.6412 45.5952 25.072 45.4744 25.5645 45.4744C25.8485 45.4744 26.1291 45.5218 26.4061 45.6165C26.6831 45.7112 26.9352 45.8651 27.1625 46.0781C27.3897 46.2888 27.5708 46.5682 27.7058 46.9162C27.8407 47.2642 27.9082 47.6927 27.9082 48.2017V48.5568H23.7037V47.8324H27.0559C27.0559 47.5246 26.9944 47.25 26.8713 47.0085C26.7505 46.767 26.5777 46.5765 26.3528 46.4368C26.1303 46.2971 25.8675 46.2273 25.5645 46.2273C25.2306 46.2273 24.9418 46.3101 24.698 46.4759C24.4565 46.6392 24.2707 46.8523 24.1404 47.1151C24.0102 47.3778 23.9451 47.6596 23.9451 47.9602V48.4432C23.9451 48.8551 24.0162 49.2043 24.1582 49.4908C24.3026 49.7749 24.5027 49.9915 24.7583 50.1406C25.014 50.2874 25.3111 50.3608 25.6497 50.3608C25.8699 50.3608 26.0687 50.33 26.2463 50.2685C26.4262 50.2045 26.5813 50.1098 26.7115 49.9844C26.8417 49.8565 26.9423 49.6979 27.0133 49.5085L27.823 49.7358C27.7377 50.0104 27.5945 50.2519 27.3933 50.4602C27.1921 50.6662 26.9435 50.8272 26.6475 50.9432C26.3516 51.0568 26.019 51.1136 25.6497 51.1136ZM30.0211 49.7642L32.649 45.5455H33.6149V51H32.7768V46.7812L30.1632 51H29.1831V45.5455H30.0211V49.7642ZM32.095 43.7273H32.8762C32.8762 44.1108 32.7437 44.4245 32.4785 44.6683C32.2134 44.9122 31.8535 45.0341 31.399 45.0341C30.9515 45.0341 30.5952 44.9122 30.3301 44.6683C30.0673 44.4245 29.9359 44.1108 29.9359 43.7273H30.7172C30.7172 43.9119 30.7681 44.0741 30.8699 44.2138C30.974 44.3535 31.1504 44.4233 31.399 44.4233C31.6475 44.4233 31.8251 44.3535 31.9316 44.2138C32.0405 44.0741 32.095 43.9119 32.095 43.7273ZM34.4077 46.3267V45.5455H38.8395V46.3267H37.0497V51H36.2116V46.3267H34.4077ZM40.9 49.7642L43.5279 45.5455H44.4938V51H43.6557V46.7812L41.0421 51H40.062V45.5455H40.9V49.7642ZM49.6793 47.8892V48.6705H46.668V47.8892H49.6793ZM46.8668 45.5455V51H46.0288V45.5455H46.8668ZM50.3185 45.5455V51H49.4805V45.5455H50.3185ZM55.2156 45.5455V46.3267H52.6871V51H51.8491V45.5455H55.2156ZM61.4673 51.1136C60.9749 51.1136 60.5429 50.9964 60.1712 50.7621C59.8018 50.5277 59.513 50.1998 59.3047 49.7784C59.0987 49.357 58.9957 48.8646 58.9957 48.3011C58.9957 47.733 59.0987 47.237 59.3047 46.8132C59.513 46.3894 59.8018 46.0604 60.1712 45.826C60.5429 45.5916 60.9749 45.4744 61.4673 45.4744C61.9598 45.4744 62.3906 45.5916 62.7599 45.826C63.1316 46.0604 63.4205 46.3894 63.6264 46.8132C63.8348 47.237 63.9389 47.733 63.9389 48.3011C63.9389 48.8646 63.8348 49.357 63.6264 49.7784C63.4205 50.1998 63.1316 50.5277 62.7599 50.7621C62.3906 50.9964 61.9598 51.1136 61.4673 51.1136ZM61.4673 50.3608C61.8414 50.3608 62.1491 50.2649 62.3906 50.0732C62.6321 49.8814 62.8108 49.6293 62.9268 49.3168C63.0429 49.0043 63.1009 48.6657 63.1009 48.3011C63.1009 47.9366 63.0429 47.5968 62.9268 47.282C62.8108 46.9671 62.6321 46.7126 62.3906 46.5185C62.1491 46.3243 61.8414 46.2273 61.4673 46.2273C61.0933 46.2273 60.7855 46.3243 60.544 46.5185C60.3026 46.7126 60.1238 46.9671 60.0078 47.282C59.8918 47.5968 59.8338 47.9366 59.8338 48.3011C59.8338 48.6657 59.8918 49.0043 60.0078 49.3168C60.1238 49.6293 60.3026 49.8814 60.544 50.0732C60.7855 50.2649 61.0933 50.3608 61.4673 50.3608ZM65.2182 53.0455V45.5455H66.0279V46.4119H66.1273C66.1889 46.3172 66.2741 46.1965 66.383 46.0497C66.4943 45.9006 66.6529 45.768 66.8588 45.652C67.0672 45.5336 67.3489 45.4744 67.704 45.4744C68.1633 45.4744 68.5681 45.5893 68.9185 45.8189C69.2689 46.0485 69.5423 46.3741 69.7388 46.7955C69.9353 47.2169 70.0336 47.714 70.0336 48.2869C70.0336 48.8646 69.9353 49.3653 69.7388 49.7891C69.5423 50.2105 69.2701 50.5372 68.9221 50.7692C68.574 50.9988 68.1728 51.1136 67.7182 51.1136C67.3678 51.1136 67.0873 51.0556 66.8766 50.9396C66.6659 50.8213 66.5037 50.6875 66.3901 50.5384C66.2765 50.3868 66.1889 50.2614 66.1273 50.1619H66.0563V53.0455H65.2182ZM66.0421 48.2727C66.0421 48.6847 66.1025 49.0481 66.2232 49.3629C66.3439 49.6754 66.5203 49.9205 66.7523 50.098C66.9843 50.2732 67.2684 50.3608 67.6046 50.3608C67.955 50.3608 68.2473 50.2685 68.4817 50.0838C68.7185 49.8968 68.896 49.6458 69.0144 49.331C69.1351 49.0137 69.1955 48.661 69.1955 48.2727C69.1955 47.8892 69.1363 47.5436 69.0179 47.2358C68.9019 46.9257 68.7256 46.6806 68.4888 46.5007C68.2544 46.3184 67.9597 46.2273 67.6046 46.2273C67.2637 46.2273 66.9772 46.3137 66.7452 46.4865C66.5132 46.657 66.338 46.8961 66.2196 47.2038C66.1013 47.5092 66.0421 47.8655 66.0421 48.2727ZM74.6784 45.5455V46.3267H72.15V51H71.312V45.5455H74.6784ZM77.2237 51.1278C76.8781 51.1278 76.5644 51.0627 76.2827 50.9325C76.0009 50.8 75.7772 50.6094 75.6115 50.3608C75.4458 50.1098 75.3629 49.8068 75.3629 49.4517C75.3629 49.1392 75.4245 48.8859 75.5476 48.6918C75.6707 48.4953 75.8352 48.3414 76.0412 48.2301C76.2472 48.1188 76.4744 48.036 76.723 47.9815C76.974 47.9247 77.2261 47.8797 77.4794 47.8466C77.8108 47.804 78.0795 47.772 78.2855 47.7507C78.4938 47.727 78.6454 47.688 78.7401 47.6335C78.8371 47.5791 78.8857 47.4844 78.8857 47.3494V47.321C78.8857 46.9706 78.7898 46.6984 78.598 46.5043C78.4086 46.3101 78.121 46.2131 77.7351 46.2131C77.335 46.2131 77.0213 46.3007 76.794 46.4759C76.5668 46.651 76.407 46.8381 76.3146 47.0369L75.5192 46.7528C75.6612 46.4214 75.8506 46.1634 76.0874 45.9787C76.3265 45.7917 76.5869 45.6615 76.8686 45.5881C77.1527 45.5123 77.4321 45.4744 77.7067 45.4744C77.8819 45.4744 78.0831 45.4957 78.3104 45.5384C78.54 45.5786 78.7614 45.6626 78.9744 45.7905C79.1899 45.9183 79.3686 46.1113 79.5107 46.3693C79.6527 46.6274 79.7237 46.973 79.7237 47.4062V51H78.8857V50.2614H78.843C78.7862 50.3797 78.6915 50.5064 78.5589 50.6413C78.4264 50.7763 78.25 50.8911 78.0298 50.9858C77.8097 51.0805 77.541 51.1278 77.2237 51.1278ZM77.3516 50.375C77.683 50.375 77.9624 50.3099 78.1896 50.1797C78.4193 50.0495 78.5921 49.8814 78.7081 49.6754C78.8265 49.4695 78.8857 49.2528 78.8857 49.0256V48.2585C78.8501 48.3011 78.772 48.3402 78.6513 48.3757C78.5329 48.4089 78.3956 48.4384 78.2393 48.4645C78.0855 48.4882 77.9351 48.5095 77.7884 48.5284C77.6439 48.545 77.5268 48.5592 77.4368 48.571C77.219 48.5994 77.0154 48.6456 76.826 48.7095C76.639 48.7711 76.4875 48.8646 76.3714 48.9901C76.2578 49.1132 76.201 49.2812 76.201 49.4943C76.201 49.7855 76.3087 50.0057 76.5241 50.1548C76.742 50.3016 77.0178 50.375 77.3516 50.375ZM84.9039 47.8892V48.6705H81.8926V47.8892H84.9039ZM82.0914 45.5455V51H81.2534V45.5455H82.0914ZM85.5431 45.5455V51H84.7051V45.5455H85.5431ZM87.9118 49.7642L90.5396 45.5455H91.5055V51H90.6674V46.7812L88.0538 51H87.0737V45.5455H87.9118V49.7642ZM92.6996 49.608H93.5945C93.6134 49.8542 93.7247 50.0412 93.9283 50.169C94.1342 50.2969 94.4018 50.3608 94.7308 50.3608C95.067 50.3608 95.3546 50.2921 95.5938 50.1548C95.8329 50.0152 95.9524 49.7902 95.9524 49.4801C95.9524 49.2978 95.9074 49.1392 95.8175 49.0043C95.7275 48.867 95.6009 48.7604 95.4375 48.6847C95.2741 48.6089 95.0812 48.571 94.8587 48.571H93.9212V47.8182H94.8587C95.1925 47.8182 95.4387 47.7424 95.5973 47.5909C95.7583 47.4394 95.8388 47.25 95.8388 47.0227C95.8388 46.7789 95.7524 46.5836 95.5795 46.4368C95.4067 46.2876 95.1617 46.2131 94.8445 46.2131C94.5249 46.2131 94.2585 46.2853 94.0455 46.4297C93.8324 46.5717 93.7199 46.7552 93.7081 46.9801H92.8274C92.8369 46.6866 92.9268 46.4273 93.0973 46.2024C93.2678 45.9751 93.4998 45.7976 93.7933 45.6697C94.0869 45.5395 94.4231 45.4744 94.8018 45.4744C95.1854 45.4744 95.518 45.5419 95.7997 45.6768C96.0838 45.8094 96.3028 45.9905 96.4567 46.2202C96.6129 46.4474 96.6911 46.7055 96.6911 46.9943C96.6911 47.3021 96.6046 47.5507 96.4318 47.7401C96.259 47.9295 96.0424 48.0644 95.782 48.1449V48.2017C95.9879 48.2159 96.1667 48.2822 96.3182 48.4006C96.4721 48.5166 96.5916 48.6693 96.6768 48.8587C96.7621 49.0457 96.8047 49.2528 96.8047 49.4801C96.8047 49.8116 96.7159 50.1004 96.5384 50.3466C96.3608 50.5904 96.117 50.7798 95.8068 50.9148C95.4967 51.0473 95.1428 51.1136 94.745 51.1136C94.3591 51.1136 94.0135 51.0509 93.7081 50.9254C93.4027 50.7976 93.16 50.6212 92.9801 50.3963C92.8026 50.169 92.709 49.9062 92.6996 49.608ZM99.587 51.1278C99.2414 51.1278 98.9277 51.0627 98.646 50.9325C98.3642 50.8 98.1405 50.6094 97.9748 50.3608C97.8091 50.1098 97.7262 49.8068 97.7262 49.4517C97.7262 49.1392 97.7878 48.8859 97.9109 48.6918C98.034 48.4953 98.1985 48.3414 98.4045 48.2301C98.6104 48.1188 98.8377 48.036 99.0863 47.9815C99.3372 47.9247 99.5894 47.8797 99.8427 47.8466C100.174 47.804 100.443 47.772 100.649 47.7507C100.857 47.727 101.009 47.688 101.103 47.6335C101.2 47.5791 101.249 47.4844 101.249 47.3494V47.321C101.249 46.9706 101.153 46.6984 100.961 46.5043C100.772 46.3101 100.484 46.2131 100.098 46.2131C99.6983 46.2131 99.3846 46.3007 99.1573 46.4759C98.93 46.651 98.7702 46.8381 98.6779 47.0369L97.8825 46.7528C98.0245 46.4214 98.2139 46.1634 98.4506 45.9787C98.6897 45.7917 98.9502 45.6615 99.2319 45.5881C99.516 45.5123 99.7953 45.4744 100.07 45.4744C100.245 45.4744 100.446 45.4957 100.674 45.5384C100.903 45.5786 101.125 45.6626 101.338 45.7905C101.553 45.9183 101.732 46.1113 101.874 46.3693C102.016 46.6274 102.087 46.973 102.087 47.4062V51H101.249V50.2614H101.206C101.15 50.3797 101.055 50.5064 100.922 50.6413C100.79 50.7763 100.613 50.8911 100.393 50.9858C100.173 51.0805 99.9042 51.1278 99.587 51.1278ZM99.7148 50.375C100.046 50.375 100.326 50.3099 100.553 50.1797C100.783 50.0495 100.955 49.8814 101.071 49.6754C101.19 49.4695 101.249 49.2528 101.249 49.0256V48.2585C101.213 48.3011 101.135 48.3402 101.015 48.3757C100.896 48.4089 100.759 48.4384 100.603 48.4645C100.449 48.4882 100.298 48.5095 100.152 48.5284C100.007 48.545 99.89 48.5592 99.8001 48.571C99.5823 48.5994 99.3787 48.6456 99.1893 48.7095C99.0022 48.7711 98.8507 48.8646 98.7347 48.9901C98.6211 49.1132 98.5643 49.2812 98.5643 49.4943C98.5643 49.7855 98.672 50.0057 98.8874 50.1548C99.1052 50.3016 99.381 50.375 99.7148 50.375ZM107.906 45.5455V50.2188H108.673V52.7614H107.835V51H103.617V45.5455H104.455V50.2188H107.068V45.5455H107.906ZM110.802 49.7642L113.43 45.5455H114.396V51H113.558V46.7812L110.944 51H109.964V45.5455H110.802V49.7642ZM116.769 49.7642L119.397 45.5455H120.363V51H119.525V46.7812L116.911 51H115.931V45.5455H116.769V49.7642ZM124.71 51V45.5455H126.941C127.528 45.5455 127.994 45.678 128.34 45.9432C128.685 46.2083 128.858 46.5587 128.858 46.9943C128.858 47.3258 128.76 47.5826 128.563 47.7649C128.367 47.9448 128.115 48.0668 127.807 48.1307C128.008 48.1591 128.204 48.2301 128.393 48.3438C128.585 48.4574 128.743 48.6136 128.869 48.8125C128.994 49.009 129.057 49.2505 129.057 49.5369C129.057 49.8163 128.986 50.0661 128.844 50.2862C128.702 50.5064 128.498 50.6804 128.233 50.8082C127.968 50.9361 127.651 51 127.281 51H124.71ZM125.506 50.233H127.281C127.57 50.233 127.796 50.1643 127.96 50.027C128.123 49.8897 128.205 49.7027 128.205 49.4659C128.205 49.1842 128.123 48.9628 127.96 48.8018C127.796 48.6385 127.57 48.5568 127.281 48.5568H125.506V50.233ZM125.506 47.8324H126.941C127.165 47.8324 127.358 47.8016 127.519 47.7401C127.68 47.6761 127.803 47.5862 127.889 47.4702C127.976 47.3518 128.02 47.2121 128.02 47.0511C128.02 46.8215 127.924 46.6416 127.732 46.5114C127.541 46.3788 127.277 46.3125 126.941 46.3125H125.506V47.8324ZM138.195 51H137.314V44.5085H135.766C135.373 44.5085 135.057 44.5689 134.818 44.6896C134.579 44.808 134.405 44.9761 134.296 45.1939C134.187 45.4117 134.132 45.6662 134.132 45.9574C134.132 46.2486 134.186 46.4995 134.292 46.7102C134.401 46.9186 134.574 47.0795 134.811 47.1932C135.05 47.3068 135.364 47.3636 135.752 47.3636H137.712V48.1591H135.723C135.16 48.1591 134.697 48.0656 134.335 47.8786C133.973 47.6892 133.704 47.4287 133.529 47.0973C133.354 46.7659 133.266 46.3859 133.266 45.9574C133.266 45.5289 133.354 45.1465 133.529 44.8104C133.704 44.4742 133.974 44.2102 134.338 44.0185C134.703 43.8243 135.169 43.7273 135.738 43.7273H138.195V51ZM134.772 47.733H135.766L134.005 51H132.982L134.772 47.733ZM143.498 47.8892V48.6705H140.486V47.8892H143.498ZM140.685 45.5455V51H139.847V45.5455H140.685ZM144.137 45.5455V51H143.299V45.5455H144.137ZM145.085 52.5625V50.2188H145.54C145.651 50.1027 145.747 49.9773 145.827 49.8423C145.908 49.7074 145.978 49.5476 146.037 49.3629C146.098 49.1759 146.15 48.9486 146.193 48.6811C146.236 48.4112 146.273 48.0857 146.307 47.7045L146.491 45.5455H149.957V50.2188H150.795V52.5625H149.957V51H145.923V52.5625H145.085ZM146.491 50.2188H149.119V46.3267H147.273L147.131 47.7045C147.071 48.2751 146.998 48.7734 146.91 49.1996C146.823 49.6257 146.683 49.9654 146.491 50.2188ZM154.195 51.1136C153.669 51.1136 153.216 50.9976 152.835 50.7656C152.456 50.5312 152.163 50.2045 151.957 49.7855C151.754 49.3641 151.652 48.8741 151.652 48.3153C151.652 47.7566 151.754 47.2642 151.957 46.8381C152.163 46.4096 152.45 46.0758 152.817 45.8366C153.186 45.5952 153.617 45.4744 154.109 45.4744C154.393 45.4744 154.674 45.5218 154.951 45.6165C155.228 45.7112 155.48 45.8651 155.707 46.0781C155.935 46.2888 156.116 46.5682 156.251 46.9162C156.386 47.2642 156.453 47.6927 156.453 48.2017V48.5568H152.249V47.8324H155.601C155.601 47.5246 155.539 47.25 155.416 47.0085C155.295 46.767 155.123 46.5765 154.898 46.4368C154.675 46.2971 154.412 46.2273 154.109 46.2273C153.776 46.2273 153.487 46.3101 153.243 46.4759C153.001 46.6392 152.816 46.8523 152.685 47.1151C152.555 47.3778 152.49 47.6596 152.49 47.9602V48.4432C152.49 48.8551 152.561 49.2043 152.703 49.4908C152.848 49.7749 153.048 49.9915 153.303 50.1406C153.559 50.2874 153.856 50.3608 154.195 50.3608C154.415 50.3608 154.614 50.33 154.791 50.2685C154.971 50.2045 155.126 50.1098 155.256 49.9844C155.387 49.8565 155.487 49.6979 155.558 49.5085L156.368 49.7358C156.283 50.0104 156.139 50.2519 155.938 50.4602C155.737 50.6662 155.488 50.8272 155.192 50.9432C154.897 51.0568 154.564 51.1136 154.195 51.1136ZM157.728 51V45.5455H158.566V47.9176H159.12L161.08 45.5455H162.16L159.958 48.1733L162.188 51H161.109L159.319 48.6989H158.566V51H157.728ZM165.09 51.1136C164.579 51.1136 164.139 50.9929 163.769 50.7514C163.4 50.5099 163.116 50.1773 162.917 49.7536C162.718 49.3298 162.619 48.8456 162.619 48.3011C162.619 47.7472 162.721 47.2583 162.924 46.8345C163.13 46.4084 163.417 46.0758 163.784 45.8366C164.153 45.5952 164.584 45.4744 165.076 45.4744C165.46 45.4744 165.805 45.5455 166.113 45.6875C166.421 45.8295 166.673 46.0284 166.869 46.2841C167.066 46.5398 167.188 46.8381 167.235 47.179H166.397C166.333 46.9304 166.191 46.7102 165.971 46.5185C165.753 46.3243 165.46 46.2273 165.09 46.2273C164.764 46.2273 164.477 46.3125 164.231 46.483C163.987 46.651 163.797 46.889 163.659 47.1967C163.524 47.5021 163.457 47.8608 163.457 48.2727C163.457 48.6941 163.523 49.0611 163.656 49.3736C163.791 49.6861 163.98 49.9287 164.224 50.1016C164.47 50.2744 164.759 50.3608 165.09 50.3608C165.308 50.3608 165.506 50.3229 165.683 50.2472C165.861 50.1714 166.011 50.0625 166.134 49.9205C166.258 49.7784 166.345 49.608 166.397 49.4091H167.235C167.188 49.7311 167.071 50.0211 166.884 50.2791C166.699 50.5348 166.454 50.7384 166.149 50.8899C165.846 51.0391 165.493 51.1136 165.09 51.1136Z" fill="#282828"/>
</svg>
