<svg width="101" height="17" viewBox="0 0 101 17" fill="none" xmlns="http://www.w3.org/2000/svg">
<path d="M8.11958 1.17082C8.23932 0.802296 8.76068 0.802296 8.88042 1.17082L10.3186 5.59696C10.3721 5.76177 10.5257 5.87336 10.699 5.87336L15.3529 5.87336C15.7404 5.87336 15.9015 6.3692 15.588 6.59696L11.8229 9.33247C11.6827 9.43433 11.6241 9.61487 11.6776 9.77968L13.1158 14.2058C13.2355 14.5743 12.8137 14.8808 12.5002 14.653L8.73511 11.9175C8.59492 11.8157 8.40508 11.8157 8.26489 11.9175L4.49978 14.653C4.1863 14.8808 3.76451 14.5743 3.88425 14.2058L5.32239 9.77968C5.37594 9.61487 5.31728 9.43433 5.17708 9.33247L1.41198 6.59696C1.09849 6.3692 1.2596 5.87336 1.64709 5.87336L6.30101 5.87336C6.4743 5.87336 6.62789 5.76177 6.68144 5.59696L8.11958 1.17082Z" fill="#FDA602"/>
<path d="M29.1196 1.17082C29.2393 0.802296 29.7607 0.802296 29.8804 1.17082L31.3186 5.59696C31.3721 5.76177 31.5257 5.87336 31.699 5.87336L36.3529 5.87336C36.7404 5.87336 36.9015 6.3692 36.588 6.59696L32.8229 9.33247C32.6827 9.43433 32.6241 9.61487 32.6776 9.77968L34.1158 14.2058C34.2355 14.5743 33.8137 14.8808 33.5002 14.653L29.7351 11.9175C29.5949 11.8157 29.4051 11.8157 29.2649 11.9175L25.4998 14.653C25.1863 14.8808 24.7645 14.5743 24.8842 14.2058L26.3224 9.77968C26.3759 9.61487 26.3173 9.43433 26.1771 9.33247L22.412 6.59696C22.0985 6.3692 22.2596 5.87336 22.6471 5.87336L27.301 5.87336C27.4743 5.87336 27.6279 5.76177 27.6814 5.59696L29.1196 1.17082Z" fill="#FDA602"/>
<path d="M50.1196 1.17082C50.2393 0.802296 50.7607 0.802296 50.8804 1.17082L52.3186 5.59696C52.3721 5.76177 52.5257 5.87336 52.699 5.87336L57.3529 5.87336C57.7404 5.87336 57.9015 6.3692 57.588 6.59696L53.8229 9.33247C53.6827 9.43433 53.6241 9.61487 53.6776 9.77968L55.1158 14.2058C55.2355 14.5743 54.8137 14.8808 54.5002 14.653L50.7351 11.9175C50.5949 11.8157 50.4051 11.8157 50.2649 11.9175L46.4998 14.653C46.1863 14.8808 45.7645 14.5743 45.8842 14.2058L47.3224 9.77968C47.3759 9.61487 47.3173 9.43433 47.1771 9.33247L43.412 6.59696C43.0985 6.3692 43.2596 5.87336 43.6471 5.87336L48.301 5.87336C48.4743 5.87336 48.6279 5.76177 48.6814 5.59696L50.1196 1.17082Z" fill="#FDA602"/>
<path d="M71.1196 1.17082C71.2393 0.802296 71.7607 0.802296 71.8804 1.17082L73.3186 5.59696C73.3721 5.76177 73.5257 5.87336 73.699 5.87336L78.3529 5.87336C78.7404 5.87336 78.9015 6.3692 78.588 6.59696L74.8229 9.33247C74.6827 9.43433 74.6241 9.61487 74.6776 9.77968L76.1158 14.2058C76.2355 14.5743 75.8137 14.8808 75.5002 14.653L71.7351 11.9175C71.5949 11.8157 71.4051 11.8157 71.2649 11.9175L67.4998 14.653C67.1863 14.8808 66.7645 14.5743 66.8842 14.2058L68.3224 9.77968C68.3759 9.61487 68.3173 9.43433 68.1771 9.33247L64.412 6.59696C64.0985 6.3692 64.2596 5.87336 64.6471 5.87336L69.301 5.87336C69.4743 5.87336 69.6279 5.76177 69.6814 5.59696L71.1196 1.17082Z" fill="#FDA602"/>
<path d="M92.1196 1.17082C92.2393 0.802296 92.7607 0.802296 92.8804 1.17082L94.3186 5.59696C94.3721 5.76177 94.5257 5.87336 94.699 5.87336L99.3529 5.87336C99.7404 5.87336 99.9015 6.3692 99.588 6.59696L95.8229 9.33247C95.6827 9.43433 95.6241 9.61487 95.6776 9.77968L97.1158 14.2058C97.2355 14.5743 96.8137 14.8808 96.5002 14.653L92.7351 11.9175C92.5949 11.8157 92.4051 11.8157 92.2649 11.9175L88.4998 14.653C88.1863 14.8808 87.7645 14.5743 87.8842 14.2058L89.3224 9.77968C89.3759 9.61487 89.3173 9.43433 89.1771 9.33247L85.412 6.59696C85.0985 6.3692 85.2596 5.87336 85.6471 5.87336L90.301 5.87336C90.4743 5.87336 90.6279 5.76177 90.6814 5.59696L92.1196 1.17082Z" fill="#FDA602"/>
</svg>
