<svg width="25" height="26" viewBox="0 0 25 26" fill="none" xmlns="http://www.w3.org/2000/svg">
<path d="M0 2.0625C0 1.6481 0.16462 1.25067 0.457646 0.957646C0.750671 0.66462 1.1481 0.5 1.5625 0.5H4.92656C5.29642 0.50017 5.65422 0.631532 5.93632 0.870718C6.21842 1.1099 6.40653 1.4414 6.46719 1.80625L7.62344 8.73594C7.67869 9.06597 7.62652 9.40501 7.47463 9.70317C7.32274 10.0013 7.07914 10.2429 6.77969 10.3922L4.36094 11.6C5.22829 13.7495 6.52005 15.702 8.15902 17.341C9.798 18.9799 11.7505 20.2717 13.9 21.1391L15.1094 18.7203C15.2586 18.4212 15.4999 18.1778 15.7977 18.0259C16.0956 17.874 16.4343 17.8217 16.7641 17.8766L23.6937 19.0328C24.0586 19.0935 24.3901 19.2816 24.6293 19.5637C24.8685 19.8458 24.9998 20.2036 25 20.5734V23.9375C25 24.3519 24.8354 24.7493 24.5424 25.0424C24.2493 25.3354 23.8519 25.5 23.4375 25.5H20.3125C9.09375 25.5 0 16.4062 0 5.1875V2.0625Z" fill="#262E16"/>
</svg>
