<svg xmlns="http://www.w3.org/2000/svg" xmlns:xlink="http://www.w3.org/1999/xlink" viewBox="0,0,256,256" width="42px" height="42px"><g fill="#bba26f" fill-rule="evenodd" stroke="none" stroke-width="1" stroke-linecap="butt" stroke-linejoin="miter" stroke-miterlimit="10" stroke-dasharray="" stroke-dashoffset="0" font-family="none" font-weight="none" font-size="none" text-anchor="none" style="mix-blend-mode: normal"><g transform="scale(9.84615,9.84615)"><path d="M21.26953,0h-15.80469c-2.80469,0 -5.46484,2.19922 -5.46484,5v15.8125c0,2.80078 2.66016,5.1875 5.46484,5.1875h15.80859c2.80078,0 4.72656,-2.38672 4.72656,-5.1875v-15.8125c0,-2.80078 -1.92578,-5 -4.73047,-5zM20.3125,15.00781c1.42188,1.32031 1.71875,1.96484 1.76563,2.04297c0.58984,0.98047 -0.65234,1.05469 -0.65234,1.05469l-2.375,0.03516c0,0 -0.51172,0.10156 -1.18359,-0.36328c-0.89062,-0.60547 -1.72656,-2.19141 -2.38281,-1.98828c-0.66016,0.21094 -0.64062,1.64062 -0.64062,1.64062c0,0 0.00391,0.25 -0.14453,0.41406c-0.16406,0.17188 -0.48437,0.15625 -0.48437,0.15625h-1.06641c0,0 -2.34766,0.19531 -4.41406,-1.95703c-2.25391,-2.34766 -4.24219,-6.97656 -4.24219,-6.97656c0,0 -0.11328,-0.29297 0.00781,-0.44141c0.14063,-0.16406 0.52344,-0.17187 0.52344,-0.17187l2.54297,-0.01172c0,0 0.23828,0.04297 0.41016,0.16797c0.14063,0.10156 0.22266,0.29688 0.22266,0.29688c0,0 0.41016,1.04297 0.95313,1.98047c1.0625,1.83594 1.55859,2.23828 1.91797,2.04297c0.52734,-0.28906 0.36719,-2.59375 0.36719,-2.59375c0,0 0.01172,-0.83984 -0.26562,-1.21484c-0.21094,-0.28516 -0.60937,-0.37109 -0.78906,-0.39453c-0.14453,-0.01953 0.09375,-0.35156 0.39844,-0.5c0.45703,-0.22266 1.26563,-0.23828 2.21875,-0.22656c0.74219,0.00781 0.95703,0.05469 1.24609,0.125c0.87891,0.21094 0.58203,1.02734 0.58203,2.98828c0,0.62891 -0.11328,1.51172 0.33984,1.80469c0.19531,0.125 0.67188,0.01953 1.85938,-2.00391c0.56641,-0.96094 0.98828,-2.08594 0.98828,-2.08594c0,0 0.09375,-0.20312 0.23828,-0.28906c0.14844,-0.08594 0.34766,-0.05859 0.34766,-0.05859l2.67578,-0.01953c0,0 0.80078,-0.09375 0.93359,0.26953c0.13672,0.37891 -0.30078,1.26953 -1.39453,2.72656c-1.79687,2.39063 -1.99609,2.16797 -0.50391,3.55078z"></path></g></g></svg>